<svg xmlns="http://www.w3.org/2000/svg" fill="none" viewBox="0 0 500 440">
  <g filter="url(#fBaggl67ma)" clip-path="url(#fBaggl67mb)">
    <g clip-path="url(#fBaggl67mc)">
      <rect x="40" y="28" width="420" height="606" rx="66" fill="#fff"/>
      <g filter="url(#fBaggl67md)">
        <rect x="64" y="52" width="372" height="550" rx="44" fill="url(#fBaggl67me)"/>
        <g filter="url(#fBaggl67mf)">
          <path d="M82 168c0-6.627 5.373-12 12-12h312c6.627 0 12 5.373 12 12v66c0 6.627-5.373 12-12 12H94c-6.627 0-12-5.373-12-12v-66z" fill="url(#fBaggl67mg)"/>
          <path d="M103.377 185v-11.254h1.275v5.865l6.256-5.865h1.802l-4.794 4.522 5.066 6.732h-1.598l-4.403-5.865-2.329 2.176V185h-1.275zm13.629.136c-.861 0-1.615-.193-2.261-.578a4.186 4.186 0 01-1.513-1.598 4.682 4.682 0 01-.527-2.21c0-.816.17-1.553.51-2.21a3.852 3.852 0 011.462-1.581c.635-.397 1.383-.595 2.244-.595.873 0 1.621.198 2.244.595a3.852 3.852 0 011.462 1.581c.34.657.51 1.394.51 2.21v.51h-7.123c.068.499.227.958.476 1.377a2.98 2.98 0 001.037.986c.431.238.929.357 1.496.357.601 0 1.105-.13 1.513-.391.408-.272.725-.618.952-1.037h1.394a4.203 4.203 0 01-1.411 1.87c-.635.476-1.456.714-2.465.714zm-2.975-5.066h5.78c-.113-.725-.419-1.332-.918-1.819-.499-.487-1.156-.731-1.972-.731-.816 0-1.473.244-1.972.731-.487.487-.793 1.094-.918 1.819zm10.976 4.93l-3.332-8.5h1.394l2.686 7.14 2.669-7.14h1.394l-3.315 8.5h-1.496zm5.954-9.928v-1.666h1.377v1.666h-1.377zm.051 9.928v-8.5h1.275v8.5h-1.275zm3.487 0v-8.5h1.275v1.326a4.26 4.26 0 011.122-1.037c.442-.283 1.008-.425 1.7-.425.589 0 1.139.142 1.649.425.521.272.94.686 1.258 1.241.328.544.493 1.218.493 2.023V185h-1.275v-4.913c0-.771-.221-1.388-.663-1.853-.442-.476-1.015-.714-1.717-.714-.476 0-.907.108-1.292.323a2.494 2.494 0 00-.935.918c-.227.385-.34.833-.34 1.343V185h-1.275zm16.835.136c-.828 0-1.553-.193-2.176-.578a4.058 4.058 0 01-1.428-1.598 4.805 4.805 0 01-.51-2.21c0-.816.17-1.553.51-2.21a3.93 3.93 0 011.428-1.581c.623-.397 1.348-.595 2.176-.595.702 0 1.303.136 1.802.408.51.272.923.64 1.241 1.105V176.5h1.275v8.5h-1.275v-1.36a3.505 3.505 0 01-1.241 1.088c-.499.272-1.1.408-1.802.408zm.17-1.156c.634 0 1.167-.147 1.598-.442a2.81 2.81 0 001.003-1.173c.226-.499.34-1.037.34-1.615 0-.589-.114-1.128-.34-1.615a2.81 2.81 0 00-1.003-1.173c-.431-.295-.964-.442-1.598-.442-.624 0-1.162.147-1.615.442a2.882 2.882 0 00-1.037 1.173 3.63 3.63 0 00-.357 1.615c0 .578.119 1.116.357 1.615.238.487.583.878 1.037 1.173.453.295.991.442 1.615.442zm9.94 1.156c-.827 0-1.553-.193-2.176-.578a4.058 4.058 0 01-1.428-1.598 4.805 4.805 0 01-.51-2.21c0-.816.17-1.553.51-2.21a3.93 3.93 0 011.428-1.581c.623-.397 1.349-.595 2.176-.595.703 0 1.303.136 1.802.408.51.272.924.64 1.241 1.105V173.1h1.275V185h-1.275v-1.36a3.497 3.497 0 01-1.241 1.088c-.499.272-1.099.408-1.802.408zm.17-1.156c.635 0 1.167-.147 1.598-.442a2.81 2.81 0 001.003-1.173c.227-.499.34-1.037.34-1.615 0-.589-.113-1.128-.34-1.615a2.81 2.81 0 00-1.003-1.173c-.431-.295-.963-.442-1.598-.442-.623 0-1.162.147-1.615.442a2.889 2.889 0 00-1.037 1.173 3.63 3.63 0 00-.357 1.615c0 .578.119 1.116.357 1.615.238.487.584.878 1.037 1.173.453.295.992.442 1.615.442zm9.94 1.156c-.827 0-1.552-.193-2.176-.578a4.058 4.058 0 01-1.428-1.598 4.805 4.805 0 01-.51-2.21c0-.816.17-1.553.51-2.21a3.93 3.93 0 011.428-1.581c.624-.397 1.349-.595 2.176-.595.703 0 1.304.136 1.802.408.51.272.924.64 1.241 1.105V173.1h1.275V185h-1.275v-1.36a3.497 3.497 0 01-1.241 1.088c-.498.272-1.099.408-1.802.408zm.17-1.156c.635 0 1.168-.147 1.598-.442a2.802 2.802 0 001.003-1.173c.227-.499.34-1.037.34-1.615 0-.589-.113-1.128-.34-1.615a2.802 2.802 0 00-1.003-1.173c-.43-.295-.963-.442-1.598-.442-.623 0-1.161.147-1.615.442a2.889 2.889 0 00-1.037 1.173 3.63 3.63 0 00-.357 1.615c0 .578.119 1.116.357 1.615.238.487.584.878 1.037 1.173.454.295.992.442 1.615.442zm10.128 1.156c-.862 0-1.615-.193-2.261-.578a4.179 4.179 0 01-1.513-1.598 4.67 4.67 0 01-.527-2.21c0-.816.17-1.553.51-2.21a3.852 3.852 0 011.462-1.581c.634-.397 1.382-.595 2.244-.595.872 0 1.62.198 2.244.595a3.859 3.859 0 011.462 1.581c.34.657.51 1.394.51 2.21v.51h-7.123c.068.499.226.958.476 1.377.26.408.606.737 1.037.986.43.238.929.357 1.496.357.6 0 1.105-.13 1.513-.391.408-.272.725-.618.952-1.037h1.394a4.203 4.203 0 01-1.411 1.87c-.635.476-1.457.714-2.465.714zm-2.975-5.066h5.78c-.114-.725-.42-1.332-.918-1.819-.499-.487-1.156-.731-1.972-.731-.816 0-1.474.244-1.972.731-.488.487-.794 1.094-.918 1.819zm12.251 5.066c-.828 0-1.553-.193-2.176-.578a4.058 4.058 0 01-1.428-1.598 4.805 4.805 0 01-.51-2.21c0-.816.17-1.553.51-2.21a3.93 3.93 0 011.428-1.581c.623-.397 1.348-.595 2.176-.595.702 0 1.303.136 1.802.408.51.272.923.64 1.241 1.105V173.1h1.275V185h-1.275v-1.36a3.505 3.505 0 01-1.241 1.088c-.499.272-1.1.408-1.802.408zm.17-1.156c.634 0 1.167-.147 1.598-.442a2.81 2.81 0 001.003-1.173c.226-.499.34-1.037.34-1.615 0-.589-.114-1.128-.34-1.615a2.81 2.81 0 00-1.003-1.173c-.431-.295-.964-.442-1.598-.442-.624 0-1.162.147-1.615.442a2.882 2.882 0 00-1.037 1.173 3.63 3.63 0 00-.357 1.615c0 .578.119 1.116.357 1.615.238.487.583.878 1.037 1.173.453.295.991.442 1.615.442zm13.559 1.156c-.827 0-1.553-.193-2.176-.578a4.058 4.058 0 01-1.428-1.598 4.805 4.805 0 01-.51-2.21c0-.816.17-1.553.51-2.21a3.93 3.93 0 011.428-1.581c.623-.397 1.349-.595 2.176-.595.703 0 1.303.136 1.802.408.51.272.924.64 1.241 1.105V176.5h1.275v8.5H207.9v-1.36a3.497 3.497 0 01-1.241 1.088c-.499.272-1.099.408-1.802.408zm.17-1.156c.635 0 1.167-.147 1.598-.442a2.81 2.81 0 001.003-1.173c.227-.499.34-1.037.34-1.615 0-.589-.113-1.128-.34-1.615a2.81 2.81 0 00-1.003-1.173c-.431-.295-.963-.442-1.598-.442-.623 0-1.162.147-1.615.442a2.889 2.889 0 00-1.037 1.173 3.63 3.63 0 00-.357 1.615c0 .578.119 1.116.357 1.615.238.487.584.878 1.037 1.173.453.295.992.442 1.615.442zM215 185v-8.5h1.275v1.326a4.26 4.26 0 011.122-1.037c.442-.283 1.008-.425 1.7-.425.589 0 1.139.142 1.649.425.521.272.94.686 1.258 1.241.328.544.493 1.218.493 2.023V185h-1.275v-4.913c0-.771-.221-1.388-.663-1.853-.442-.476-1.015-.714-1.717-.714-.476 0-.907.108-1.292.323a2.494 2.494 0 00-.935.918c-.227.385-.34.833-.34 1.343V185H215zm13.402.136c-.861 0-1.615-.193-2.261-.578a4.186 4.186 0 01-1.513-1.598 4.682 4.682 0 01-.527-2.21c0-.816.17-1.553.51-2.21a3.859 3.859 0 011.462-1.581c.635-.397 1.383-.595 2.244-.595.873 0 1.621.198 2.244.595a3.852 3.852 0 011.462 1.581c.34.657.51 1.394.51 2.21v.51h-7.123c.068.499.227.958.476 1.377a2.99 2.99 0 001.037.986c.431.238.93.357 1.496.357.601 0 1.105-.13 1.513-.391.408-.272.726-.618.952-1.037h1.394a4.196 4.196 0 01-1.411 1.87c-.634.476-1.456.714-2.465.714zm-2.975-5.066h5.78c-.113-.725-.419-1.332-.918-1.819-.498-.487-1.156-.731-1.972-.731-.816 0-1.473.244-1.972.731-.487.487-.793 1.094-.918 1.819zM235.74 185l-2.669-8.5h1.36l2.04 6.919 2.159-6.919h1.394l2.159 6.919 2.04-6.919h1.36l-2.669 8.5h-1.462l-2.125-6.783-2.125 6.783h-1.462zm14.603-9.928v-1.666h1.377v1.666h-1.377zm.051 9.928v-8.5h1.275v8.5h-1.275zm4.404 0v-7.378h-1.734V176.5h1.734v-3.043h1.275v3.043h1.955v1.122h-1.955V185h-1.275zm8.235.136c-.861 0-1.615-.193-2.261-.578a4.186 4.186 0 01-1.513-1.598 4.682 4.682 0 01-.527-2.21c0-.816.17-1.553.51-2.21a3.859 3.859 0 011.462-1.581c.635-.397 1.383-.595 2.244-.595.873 0 1.621.198 2.244.595a3.852 3.852 0 011.462 1.581c.34.657.51 1.394.51 2.21v.51h-7.123c.068.499.227.958.476 1.377a2.99 2.99 0 001.037.986c.431.238.93.357 1.496.357.601 0 1.105-.13 1.513-.391.408-.272.726-.618.952-1.037h1.394a4.196 4.196 0 01-1.411 1.87c-.634.476-1.456.714-2.465.714zm-2.975-5.066h5.78c-.113-.725-.419-1.332-.918-1.819-.498-.487-1.156-.731-1.972-.731-.816 0-1.473.244-1.972.731-.487.487-.793 1.094-.918 1.819zm8.664 4.93v-8.5h1.275v1.292c.193-.34.499-.663.918-.969.42-.306.975-.459 1.666-.459.567 0 1.088.153 1.564.459.488.295.867.714 1.139 1.258.114-.193.289-.425.527-.697.25-.272.573-.51.969-.714.397-.204.873-.306 1.428-.306.544 0 1.054.142 1.53.425.476.283.862.691 1.156 1.224.306.521.459 1.139.459 1.853V185h-1.275v-5.1c0-.714-.204-1.286-.612-1.717a1.923 1.923 0 00-1.496-.663c-.623 0-1.161.21-1.615.629-.453.419-.68 1.009-.68 1.768V185H274.4v-5.1c0-.714-.204-1.286-.612-1.717a1.923 1.923 0 00-1.496-.663c-.623 0-1.161.21-1.615.629-.453.419-.68 1.009-.68 1.768V185h-1.275zm19.296 0v-7.378h-1.734V176.5h1.734v-3.043h1.275v3.043h1.955v1.122h-1.955V185h-1.275zm8.15.136c-.861 0-1.609-.193-2.244-.578a3.972 3.972 0 01-1.462-1.598 4.805 4.805 0 01-.51-2.21c0-.816.17-1.553.51-2.21a3.852 3.852 0 011.462-1.581c.635-.397 1.383-.595 2.244-.595.873 0 1.621.198 2.244.595a3.852 3.852 0 011.462 1.581c.34.657.51 1.394.51 2.21 0 .805-.17 1.541-.51 2.21a3.972 3.972 0 01-1.462 1.598c-.623.385-1.371.578-2.244.578zm0-1.156c.635 0 1.167-.147 1.598-.442a2.81 2.81 0 001.003-1.173c.227-.499.34-1.037.34-1.615 0-.589-.113-1.128-.34-1.615a2.81 2.81 0 00-1.003-1.173c-.431-.295-.963-.442-1.598-.442-.623 0-1.156.147-1.598.442a2.81 2.81 0 00-1.003 1.173 3.778 3.778 0 00-.34 1.615c0 .578.113 1.116.34 1.615a2.81 2.81 0 001.003 1.173c.442.295.975.442 1.598.442zm10.959 1.02v-7.378h-1.734V176.5h1.734v-3.043h1.275v3.043h1.955v1.122h-1.955V185h-1.275zm4.626 0v-11.9h1.275v4.726a4.26 4.26 0 011.122-1.037c.442-.283 1.009-.425 1.7-.425.59 0 1.139.142 1.649.425.522.272.941.686 1.258 1.241.329.544.493 1.218.493 2.023V185h-1.275v-4.913c0-.771-.221-1.388-.663-1.853-.442-.476-1.014-.714-1.717-.714-.476 0-.906.108-1.292.323a2.501 2.501 0 00-.935.918c-.226.385-.34.833-.34 1.343V185h-1.275zm13.403.136c-.861 0-1.615-.193-2.261-.578a4.186 4.186 0 01-1.513-1.598 4.682 4.682 0 01-.527-2.21c0-.816.17-1.553.51-2.21a3.859 3.859 0 011.462-1.581c.635-.397 1.383-.595 2.244-.595.873 0 1.621.198 2.244.595a3.852 3.852 0 011.462 1.581c.34.657.51 1.394.51 2.21v.51h-7.123c.068.499.227.958.476 1.377a2.99 2.99 0 001.037.986c.431.238.93.357 1.496.357.601 0 1.105-.13 1.513-.391.408-.272.726-.618.952-1.037h1.394a4.196 4.196 0 01-1.411 1.87c-.634.476-1.456.714-2.465.714zm-2.975-5.066h5.78c-.113-.725-.419-1.332-.918-1.819-.498-.487-1.156-.731-1.972-.731-.816 0-1.473.244-1.972.731-.487.487-.793 1.094-.918 1.819zM102.051 205l4.777-11.254h1.598L113.203 205h-1.411l-1.377-3.264h-5.576L103.462 205h-1.411zm3.281-4.437h4.59l-2.295-5.491-2.295 5.491zm12.684 4.573c-.85 0-1.587-.193-2.21-.578a4.141 4.141 0 01-1.462-1.598 4.805 4.805 0 01-.51-2.21c0-.816.17-1.553.51-2.21a4.011 4.011 0 011.462-1.581c.623-.397 1.36-.595 2.21-.595 1.009 0 1.864.261 2.567.782a3.808 3.808 0 011.445 2.023h-1.377a2.61 2.61 0 00-.935-1.19c-.419-.306-.929-.459-1.53-.459-.623 0-1.167.147-1.632.442a2.964 2.964 0 00-1.071 1.173 3.498 3.498 0 00-.374 1.615c0 .578.125 1.116.374 1.615.249.487.606.878 1.071 1.173.465.295 1.009.442 1.632.442.601 0 1.111-.153 1.53-.459a2.61 2.61 0 00.935-1.19h1.377a3.808 3.808 0 01-1.445 2.023c-.703.521-1.558.782-2.567.782zm9.247 0c-.85 0-1.587-.193-2.21-.578a4.141 4.141 0 01-1.462-1.598 4.805 4.805 0 01-.51-2.21c0-.816.17-1.553.51-2.21a4.011 4.011 0 011.462-1.581c.623-.397 1.36-.595 2.21-.595 1.009 0 1.864.261 2.567.782a3.808 3.808 0 011.445 2.023h-1.377a2.61 2.61 0 00-.935-1.19c-.419-.306-.929-.459-1.53-.459-.623 0-1.167.147-1.632.442a2.964 2.964 0 00-1.071 1.173 3.498 3.498 0 00-.374 1.615c0 .578.125 1.116.374 1.615.249.487.606.878 1.071 1.173.465.295 1.009.442 1.632.442.601 0 1.111-.153 1.53-.459a2.61 2.61 0 00.935-1.19h1.377a3.808 3.808 0 01-1.445 2.023c-.703.521-1.558.782-2.567.782zm9.281 0c-.861 0-1.609-.193-2.244-.578a3.972 3.972 0 01-1.462-1.598 4.805 4.805 0 01-.51-2.21c0-.816.17-1.553.51-2.21a3.852 3.852 0 011.462-1.581c.635-.397 1.383-.595 2.244-.595.873 0 1.621.198 2.244.595a3.852 3.852 0 011.462 1.581c.34.657.51 1.394.51 2.21 0 .805-.17 1.541-.51 2.21a3.972 3.972 0 01-1.462 1.598c-.623.385-1.371.578-2.244.578zm0-1.156c.635 0 1.167-.147 1.598-.442a2.81 2.81 0 001.003-1.173c.227-.499.34-1.037.34-1.615 0-.589-.113-1.128-.34-1.615a2.81 2.81 0 00-1.003-1.173c-.431-.295-.963-.442-1.598-.442-.623 0-1.156.147-1.598.442a2.81 2.81 0 00-1.003 1.173 3.778 3.778 0 00-.34 1.615c0 .578.113 1.116.34 1.615a2.81 2.81 0 001.003 1.173c.442.295.975.442 1.598.442zm9.222 1.156a3.515 3.515 0 01-1.649-.408 3.333 3.333 0 01-1.275-1.241c-.318-.555-.476-1.235-.476-2.04V196.5h1.275v4.913c0 .771.221 1.394.663 1.87.453.465 1.025.697 1.717.697.476 0 .906-.108 1.292-.323.385-.227.691-.533.918-.918.238-.385.357-.833.357-1.343V196.5h1.275v8.5h-1.275v-1.326a4.26 4.26 0 01-1.122 1.037c-.442.283-1.009.425-1.7.425zm6.314-.136v-8.5h1.275v1.326a4.26 4.26 0 011.122-1.037c.442-.283 1.008-.425 1.7-.425.589 0 1.139.142 1.649.425.521.272.94.686 1.258 1.241.328.544.493 1.218.493 2.023V205h-1.275v-4.913c0-.771-.221-1.388-.663-1.853-.442-.476-1.015-.714-1.717-.714-.476 0-.907.108-1.292.323a2.494 2.494 0 00-.935.918c-.227.385-.34.833-.34 1.343V205h-1.275zm10.347 0v-7.378h-1.734V196.5h1.734v-3.043h1.275v3.043h1.955v1.122h-1.955V205h-1.275zm7.721.136c-.782 0-1.445-.13-1.989-.391-.532-.261-.94-.601-1.224-1.02a2.856 2.856 0 01-.476-1.394h1.326c.034.283.131.561.289.833.17.261.425.476.765.646.34.159.782.238 1.326.238.17 0 .38-.017.629-.051.25-.034.488-.096.714-.187.238-.091.437-.227.595-.408.159-.181.238-.414.238-.697 0-.351-.136-.623-.408-.816-.272-.193-.623-.34-1.054-.442-.43-.113-.889-.221-1.377-.323a9.941 9.941 0 01-1.36-.391 2.813 2.813 0 01-1.054-.697c-.272-.306-.408-.72-.408-1.241 0-.771.278-1.366.833-1.785.567-.431 1.4-.646 2.499-.646.748 0 1.355.119 1.819.357.476.227.833.521 1.071.884.25.363.397.754.442 1.173h-1.292c-.045-.363-.226-.674-.544-.935-.306-.261-.816-.391-1.53-.391-1.348 0-2.023.408-2.023 1.224 0 .34.136.601.408.782.272.181.624.329 1.054.442.431.102.884.204 1.36.306.488.091.947.221 1.377.391.431.17.782.414 1.054.731.272.306.408.725.408 1.258 0 .827-.317 1.462-.952 1.904-.623.431-1.462.646-2.516.646zm9.645-.136v-7.378h-1.734V196.5h1.734v-3.043h1.275v3.043h1.955v1.122h-1.955V205h-1.275zm8.234.136c-.861 0-1.615-.193-2.261-.578a4.186 4.186 0 01-1.513-1.598 4.682 4.682 0 01-.527-2.21c0-.816.17-1.553.51-2.21a3.859 3.859 0 011.462-1.581c.635-.397 1.383-.595 2.244-.595.873 0 1.621.198 2.244.595a3.852 3.852 0 011.462 1.581c.34.657.51 1.394.51 2.21v.51h-7.123c.068.499.227.958.476 1.377a2.99 2.99 0 001.037.986c.431.238.93.357 1.496.357.601 0 1.105-.13 1.513-.391.408-.272.726-.618.952-1.037h1.394a4.196 4.196 0 01-1.411 1.87c-.634.476-1.456.714-2.465.714zm-2.975-5.066h5.78c-.113-.725-.419-1.332-.918-1.819-.498-.487-1.156-.731-1.972-.731-.816 0-1.473.244-1.972.731-.487.487-.793 1.094-.918 1.819zm12.251 5.066c-.827 0-1.552-.193-2.176-.578a4.058 4.058 0 01-1.428-1.598 4.805 4.805 0 01-.51-2.21c0-.816.17-1.553.51-2.21a3.93 3.93 0 011.428-1.581c.624-.397 1.349-.595 2.176-.595.703 0 1.304.136 1.802.408.51.272.924.64 1.241 1.105V196.5h1.275v8.5h-1.275v-1.36a3.497 3.497 0 01-1.241 1.088c-.498.272-1.099.408-1.802.408zm.17-1.156c.635 0 1.168-.147 1.598-.442a2.802 2.802 0 001.003-1.173c.227-.499.34-1.037.34-1.615 0-.589-.113-1.128-.34-1.615a2.802 2.802 0 00-1.003-1.173c-.43-.295-.963-.442-1.598-.442-.623 0-1.161.147-1.615.442a2.889 2.889 0 00-1.037 1.173 3.63 3.63 0 00-.357 1.615c0 .578.119 1.116.357 1.615.238.487.584.878 1.037 1.173.454.295.992.442 1.615.442zm6.354 1.02v-8.5h1.275v1.292c.192-.34.498-.663.918-.969.419-.306.974-.459 1.666-.459.566 0 1.088.153 1.564.459a3 3 0 011.139 1.258 4.83 4.83 0 01.527-.697c.249-.272.572-.51.969-.714.396-.204.872-.306 1.428-.306.544 0 1.054.142 1.53.425.476.283.861.691 1.156 1.224.306.521.459 1.139.459 1.853V205h-1.275v-5.1c0-.714-.204-1.286-.612-1.717a1.926 1.926 0 00-1.496-.663c-.624 0-1.162.21-1.615.629-.454.419-.68 1.009-.68 1.768V205h-1.275v-5.1c0-.714-.204-1.286-.612-1.717a1.926 1.926 0 00-1.496-.663c-.624 0-1.162.21-1.615.629-.454.419-.68 1.009-.68 1.768V205h-1.275z" fill="#5761DF"/>
          <path d="M102.676 225v-.533c0-.425.117-.81.351-1.157.234-.355.533-.685.897-.988a13.67 13.67 0 011.17-.871 42.17 42.17 0 001.17-.832c.364-.269.663-.546.897-.832.234-.295.351-.607.351-.936 0-.503-.169-.897-.507-1.183-.329-.286-.806-.429-1.43-.429-.572 0-1.04.13-1.404.39-.355.251-.568.62-.637 1.105h-.975c.052-.494.212-.923.481-1.287a2.718 2.718 0 011.066-.858 3.415 3.415 0 011.443-.299c.624 0 1.153.113 1.586.338.442.225.776.529 1.001.91.234.381.351.81.351 1.287 0 .399-.108.771-.325 1.118a4.387 4.387 0 01-.845.975c-.347.303-.715.589-1.105.858-.381.269-.75.533-1.105.793-.355.251-.65.503-.884.754-.234.243-.364.49-.39.741h4.628V225h-5.785zm10.084 0v-9.1h.975v3.614c.234-.312.52-.576.858-.793.338-.217.771-.325 1.3-.325.451 0 .871.108 1.261.325.399.208.719.524.962.949.251.416.377.932.377 1.547V225h-.975v-3.757c0-.589-.169-1.062-.507-1.417-.338-.364-.776-.546-1.313-.546a1.917 1.917 0 00-1.703.949c-.173.295-.26.637-.26 1.027V225h-.975zm10.184.104c-.658 0-1.23-.147-1.716-.442a3.042 3.042 0 01-1.118-1.222 3.674 3.674 0 01-.39-1.69c0-.624.13-1.187.39-1.69.26-.511.633-.914 1.118-1.209.486-.303 1.058-.455 1.716-.455.668 0 1.24.152 1.716.455a2.95 2.95 0 011.118 1.209c.26.503.39 1.066.39 1.69 0 .615-.13 1.179-.39 1.69-.26.511-.632.919-1.118 1.222-.476.295-1.048.442-1.716.442zm0-.884c.486 0 .893-.113 1.222-.338.338-.225.594-.524.767-.897.174-.381.26-.793.26-1.235 0-.451-.086-.862-.26-1.235a2.137 2.137 0 00-.767-.897c-.329-.225-.736-.338-1.222-.338-.476 0-.884.113-1.222.338a2.144 2.144 0 00-.767.897c-.173.373-.26.784-.26 1.235 0 .442.087.854.26 1.235.174.373.429.672.767.897.338.225.746.338 1.222.338zm7.052.884a2.69 2.69 0 01-1.261-.312 2.57 2.57 0 01-.975-.949c-.242-.425-.364-.945-.364-1.56V218.5h.975v3.757c0 .589.169 1.066.507 1.43.347.355.785.533 1.313.533.364 0 .694-.082.988-.247.295-.173.529-.407.702-.702.182-.295.273-.637.273-1.027V218.5h.975v6.5h-.975v-1.014c-.234.312-.52.576-.858.793-.338.217-.771.325-1.3.325zm4.828-.104v-6.5h.975v1.599c.035-.113.1-.26.195-.442.104-.191.252-.381.442-.572.191-.191.429-.351.715-.481a2.419 2.419 0 011.04-.208h.065v.975h-.117c-.485 0-.905.134-1.261.403a2.58 2.58 0 00-.806 1.027 3.303 3.303 0 00-.273 1.339V225h-.975zm6.848.104c-.598 0-1.105-.1-1.521-.299-.407-.199-.719-.459-.936-.78a2.178 2.178 0 01-.364-1.066h1.014c.026.217.1.429.221.637.13.199.325.364.585.494.26.121.598.182 1.014.182.13 0 .29-.013.481-.039.191-.026.373-.074.546-.143.182-.069.334-.173.455-.312a.782.782 0 00.182-.533.72.72 0 00-.312-.624 2.315 2.315 0 00-.806-.338c-.329-.087-.68-.169-1.053-.247a7.662 7.662 0 01-1.04-.299 2.156 2.156 0 01-.806-.533c-.208-.234-.312-.55-.312-.949 0-.589.212-1.044.637-1.365.433-.329 1.07-.494 1.911-.494.572 0 1.036.091 1.391.273.364.173.637.399.819.676.191.277.303.576.338.897h-.988a1.081 1.081 0 00-.416-.715c-.234-.199-.624-.299-1.17-.299-1.031 0-1.547.312-1.547.936 0 .26.104.459.312.598.208.139.477.251.806.338.329.078.676.156 1.04.234a5.66 5.66 0 011.053.299c.329.13.598.316.806.559.208.234.312.555.312.962 0 .633-.243 1.118-.728 1.456-.477.329-1.118.494-1.924.494zm9.416 0c-.633 0-1.187-.147-1.664-.442a3.103 3.103 0 01-1.092-1.222 3.674 3.674 0 01-.39-1.69c0-.624.13-1.187.39-1.69.26-.511.624-.914 1.092-1.209.477-.303 1.031-.455 1.664-.455.537 0 .997.104 1.378.312.39.208.706.49.949.845V218.5h.975v6.5h-.975v-1.04a2.673 2.673 0 01-.949.832c-.381.208-.841.312-1.378.312zm.13-.884c.485 0 .893-.113 1.222-.338.338-.225.594-.524.767-.897.173-.381.26-.793.26-1.235 0-.451-.087-.862-.26-1.235a2.137 2.137 0 00-.767-.897c-.329-.225-.737-.338-1.222-.338-.477 0-.888.113-1.235.338a2.197 2.197 0 00-.793.897 2.776 2.776 0 00-.273 1.235c0 .442.091.854.273 1.235.182.373.446.672.793.897.347.225.758.338 1.235.338zm7.835 3.458c-.814 0-1.477-.178-1.989-.533a2.574 2.574 0 01-1.04-1.365h1.079c.13.321.356.568.676.741.321.182.728.273 1.222.273.746 0 1.287-.178 1.625-.533.347-.347.52-.854.52-1.521v-.897a2.789 2.789 0 01-.949.845c-.381.208-.84.312-1.378.312-.632 0-1.187-.143-1.664-.429a3.03 3.03 0 01-1.092-1.196 3.597 3.597 0 01-.39-1.677c0-.624.13-1.183.39-1.677.26-.503.624-.897 1.092-1.183.477-.295 1.032-.442 1.664-.442.538 0 .997.104 1.378.312.39.199.707.477.949.832v-1.04h.975v6.305c0 .927-.268 1.638-.806 2.132-.528.494-1.282.741-2.262.741zm-.104-3.562c.477 0 .88-.108 1.209-.325.338-.217.594-.507.767-.871.182-.373.273-.78.273-1.222 0-.451-.091-.858-.273-1.222a2.073 2.073 0 00-.767-.871c-.329-.217-.732-.325-1.209-.325-.476 0-.888.108-1.235.325a2.141 2.141 0 00-.793.871 2.693 2.693 0 00-.273 1.222c0 .442.091.849.273 1.222.182.364.447.654.793.871.347.217.759.325 1.235.325zm7.68.988c-.659 0-1.231-.147-1.716-.442a3.042 3.042 0 01-1.118-1.222 3.674 3.674 0 01-.39-1.69c0-.624.13-1.187.39-1.69.26-.511.633-.914 1.118-1.209.485-.303 1.057-.455 1.716-.455.667 0 1.239.152 1.716.455.485.295.858.698 1.118 1.209.26.503.39 1.066.39 1.69 0 .615-.13 1.179-.39 1.69-.26.511-.633.919-1.118 1.222-.477.295-1.049.442-1.716.442zm0-.884c.485 0 .893-.113 1.222-.338.338-.225.594-.524.767-.897.173-.381.26-.793.26-1.235 0-.451-.087-.862-.26-1.235a2.137 2.137 0 00-.767-.897c-.329-.225-.737-.338-1.222-.338-.477 0-.884.113-1.222.338a2.137 2.137 0 00-.767.897c-.173.373-.26.784-.26 1.235 0 .442.087.854.26 1.235.173.373.429.672.767.897.338.225.745.338 1.222.338z" fill="#000" fill-opacity=".5"/>
          <path d="M390 191l8 8-8 8" stroke="#000" stroke-opacity=".2" stroke-width="2"/>
        </g>
        <g filter="url(#fBaggl67mh)">
          <path d="M82 274c0-6.627 5.373-12 12-12h312c6.627 0 12 5.373 12 12v46c0 6.627-5.373 12-12 12H94c-6.627 0-12-5.373-12-12v-46z" fill="url(#fBaggl67mi)"/>
          <path d="M103.377 293v-11.254h5.389c1.156 0 2.074.317 2.754.952.691.635 1.037 1.49 1.037 2.567 0 .725-.142 1.303-.425 1.734a2.785 2.785 0 01-1.037.986 5.723 5.723 0 01-1.258.476l2.958 4.539h-1.513l-2.72-4.318h-3.91V293h-1.275zm1.275-5.525h3.893c.408 0 .822-.062 1.241-.187a2.244 2.244 0 001.054-.663c.295-.329.442-.782.442-1.36 0-.714-.244-1.275-.731-1.683-.487-.419-1.133-.629-1.938-.629h-3.961v4.522zm13.4 5.661c-.861 0-1.615-.193-2.261-.578a4.186 4.186 0 01-1.513-1.598 4.682 4.682 0 01-.527-2.21c0-.816.17-1.553.51-2.21a3.852 3.852 0 011.462-1.581c.635-.397 1.383-.595 2.244-.595.873 0 1.621.198 2.244.595a3.852 3.852 0 011.462 1.581c.34.657.51 1.394.51 2.21v.51h-7.123c.068.499.227.958.476 1.377a2.98 2.98 0 001.037.986c.431.238.929.357 1.496.357.601 0 1.105-.13 1.513-.391.408-.272.725-.618.952-1.037h1.394a4.203 4.203 0 01-1.411 1.87c-.635.476-1.456.714-2.465.714zm-2.975-5.066h5.78c-.113-.725-.419-1.332-.918-1.819-.499-.487-1.156-.731-1.972-.731-.816 0-1.473.244-1.972.731-.487.487-.793 1.094-.918 1.819zm12.982 5.066c-.703 0-1.309-.136-1.819-.408a3.537 3.537 0 01-1.224-1.088V293h-1.275v-11.9h1.275v4.777a3.467 3.467 0 011.224-1.105c.51-.272 1.116-.408 1.819-.408.827 0 1.547.198 2.159.595a3.893 3.893 0 011.445 1.581c.34.657.51 1.394.51 2.21 0 .805-.17 1.541-.51 2.21a4.017 4.017 0 01-1.445 1.598c-.612.385-1.332.578-2.159.578zm-.17-1.156c.634 0 1.173-.147 1.615-.442a2.889 2.889 0 001.037-1.173 3.702 3.702 0 00.357-1.615 3.63 3.63 0 00-.357-1.615 2.889 2.889 0 00-1.037-1.173c-.442-.295-.981-.442-1.615-.442-.624 0-1.156.147-1.598.442a2.802 2.802 0 00-1.003 1.173 3.778 3.778 0 00-.34 1.615c0 .578.113 1.116.34 1.615.226.487.561.878 1.003 1.173.442.295.974.442 1.598.442zm9.736 1.156c-.861 0-1.615-.193-2.261-.578a4.186 4.186 0 01-1.513-1.598 4.682 4.682 0 01-.527-2.21c0-.816.17-1.553.51-2.21a3.852 3.852 0 011.462-1.581c.635-.397 1.383-.595 2.244-.595.873 0 1.621.198 2.244.595a3.852 3.852 0 011.462 1.581c.34.657.51 1.394.51 2.21v.51h-7.123c.068.499.227.958.476 1.377a2.98 2.98 0 001.037.986c.431.238.929.357 1.496.357.601 0 1.105-.13 1.513-.391.408-.272.725-.618.952-1.037h1.394a4.203 4.203 0 01-1.411 1.87c-.635.476-1.456.714-2.465.714zm-2.975-5.066h5.78c-.113-.725-.419-1.332-.918-1.819-.499-.487-1.156-.731-1.972-.731-.816 0-1.473.244-1.972.731-.487.487-.793 1.094-.918 1.819zm12.319 5.066c-.85 0-1.587-.193-2.21-.578a4.141 4.141 0 01-1.462-1.598 4.805 4.805 0 01-.51-2.21c0-.816.17-1.553.51-2.21a4.011 4.011 0 011.462-1.581c.623-.397 1.36-.595 2.21-.595 1.009 0 1.864.261 2.567.782a3.808 3.808 0 011.445 2.023h-1.377a2.61 2.61 0 00-.935-1.19c-.419-.306-.929-.459-1.53-.459-.623 0-1.167.147-1.632.442a2.964 2.964 0 00-1.071 1.173 3.498 3.498 0 00-.374 1.615c0 .578.125 1.116.374 1.615.249.487.606.878 1.071 1.173.465.295 1.009.442 1.632.442.601 0 1.111-.153 1.53-.459a2.61 2.61 0 00.935-1.19h1.377a3.808 3.808 0 01-1.445 2.023c-.703.521-1.558.782-2.567.782zm9.247 0c-.85 0-1.587-.193-2.21-.578a4.141 4.141 0 01-1.462-1.598 4.805 4.805 0 01-.51-2.21c0-.816.17-1.553.51-2.21a4.011 4.011 0 011.462-1.581c.623-.397 1.36-.595 2.21-.595 1.009 0 1.864.261 2.567.782a3.808 3.808 0 011.445 2.023h-1.377a2.61 2.61 0 00-.935-1.19c-.419-.306-.929-.459-1.53-.459-.623 0-1.167.147-1.632.442a2.964 2.964 0 00-1.071 1.173 3.498 3.498 0 00-.374 1.615c0 .578.125 1.116.374 1.615.249.487.606.878 1.071 1.173.465.295 1.009.442 1.632.442.601 0 1.111-.153 1.53-.459a2.61 2.61 0 00.935-1.19h1.377a3.808 3.808 0 01-1.445 2.023c-.703.521-1.558.782-2.567.782zm9.179 0c-.827 0-1.553-.193-2.176-.578a4.058 4.058 0 01-1.428-1.598 4.805 4.805 0 01-.51-2.21c0-.816.17-1.553.51-2.21a3.93 3.93 0 011.428-1.581c.623-.397 1.349-.595 2.176-.595.703 0 1.303.136 1.802.408.51.272.924.64 1.241 1.105V284.5h1.275v8.5h-1.275v-1.36a3.497 3.497 0 01-1.241 1.088c-.499.272-1.099.408-1.802.408zm.17-1.156c.635 0 1.167-.147 1.598-.442a2.81 2.81 0 001.003-1.173c.227-.499.34-1.037.34-1.615 0-.589-.113-1.128-.34-1.615a2.81 2.81 0 00-1.003-1.173c-.431-.295-.963-.442-1.598-.442-.623 0-1.162.147-1.615.442a2.889 2.889 0 00-1.037 1.173 3.63 3.63 0 00-.357 1.615c0 .578.119 1.116.357 1.615.238.487.584.878 1.037 1.173.453.295.992.442 1.615.442zm13.067 1.156c-.782 0-1.445-.13-1.989-.391-.533-.261-.941-.601-1.224-1.02a2.846 2.846 0 01-.476-1.394h1.326c.034.283.13.561.289.833.17.261.425.476.765.646.34.159.782.238 1.326.238a4.8 4.8 0 00.629-.051c.249-.034.487-.096.714-.187.238-.091.436-.227.595-.408.158-.181.238-.414.238-.697 0-.351-.136-.623-.408-.816-.272-.193-.624-.34-1.054-.442a28.36 28.36 0 00-1.377-.323 9.9 9.9 0 01-1.36-.391 2.805 2.805 0 01-1.054-.697c-.272-.306-.408-.72-.408-1.241 0-.771.277-1.366.833-1.785.566-.431 1.399-.646 2.499-.646.748 0 1.354.119 1.819.357.476.227.833.521 1.071.884.249.363.396.754.442 1.173h-1.292c-.046-.363-.227-.674-.544-.935-.306-.261-.816-.391-1.53-.391-1.349 0-2.023.408-2.023 1.224 0 .34.136.601.408.782.272.181.623.329 1.054.442.43.102.884.204 1.36.306.487.091.946.221 1.377.391.43.17.782.414 1.054.731.272.306.408.725.408 1.258 0 .827-.318 1.462-.952 1.904-.624.431-1.462.646-2.516.646zm8.881 0c-.862 0-1.615-.193-2.261-.578a4.179 4.179 0 01-1.513-1.598 4.67 4.67 0 01-.527-2.21c0-.816.17-1.553.51-2.21a3.852 3.852 0 011.462-1.581c.634-.397 1.382-.595 2.244-.595.872 0 1.62.198 2.244.595a3.859 3.859 0 011.462 1.581c.34.657.51 1.394.51 2.21v.51h-7.123c.068.499.226.958.476 1.377.26.408.606.737 1.037.986.43.238.929.357 1.496.357.6 0 1.105-.13 1.513-.391.408-.272.725-.618.952-1.037h1.394a4.203 4.203 0 01-1.411 1.87c-.635.476-1.457.714-2.465.714zm-2.975-5.066h5.78c-.114-.725-.42-1.332-.918-1.819-.499-.487-1.156-.731-1.972-.731-.816 0-1.474.244-1.972.731-.488.487-.794 1.094-.918 1.819zm8.664 4.93v-8.5h1.275v1.326a4.26 4.26 0 011.122-1.037c.442-.283 1.008-.425 1.7-.425.589 0 1.139.142 1.649.425.521.272.94.686 1.258 1.241.328.544.493 1.218.493 2.023V293h-1.275v-4.913c0-.771-.221-1.388-.663-1.853-.442-.476-1.015-.714-1.717-.714-.476 0-.907.108-1.292.323a2.494 2.494 0 00-.935.918c-.227.385-.34.833-.34 1.343V293h-1.275zm10.347 0v-7.378h-1.734V284.5h1.734v-3.043h1.275v3.043h1.955v1.122h-1.955V293h-1.275zm9.13 3.366l1.547-3.485-3.468-8.381h1.411l2.737 6.97 2.788-6.97h1.394l-5.032 11.866h-1.377zm11.09-3.23c-.862 0-1.61-.193-2.244-.578a3.972 3.972 0 01-1.462-1.598 4.805 4.805 0 01-.51-2.21c0-.816.17-1.553.51-2.21a3.852 3.852 0 011.462-1.581c.634-.397 1.382-.595 2.244-.595.872 0 1.62.198 2.244.595a3.859 3.859 0 011.462 1.581c.34.657.51 1.394.51 2.21 0 .805-.17 1.541-.51 2.21a3.98 3.98 0 01-1.462 1.598c-.624.385-1.372.578-2.244.578zm0-1.156c.634 0 1.167-.147 1.598-.442a2.81 2.81 0 001.003-1.173c.226-.499.34-1.037.34-1.615 0-.589-.114-1.128-.34-1.615a2.81 2.81 0 00-1.003-1.173c-.431-.295-.964-.442-1.598-.442-.624 0-1.156.147-1.598.442a2.802 2.802 0 00-1.003 1.173 3.778 3.778 0 00-.34 1.615c0 .578.113 1.116.34 1.615.226.487.561.878 1.003 1.173.442.295.974.442 1.598.442zm9.221 1.156a3.518 3.518 0 01-1.649-.408 3.347 3.347 0 01-1.275-1.241c-.317-.555-.476-1.235-.476-2.04V284.5h1.275v4.913c0 .771.221 1.394.663 1.87.454.465 1.026.697 1.717.697.476 0 .907-.108 1.292-.323a2.54 2.54 0 00.918-.918c.238-.385.357-.833.357-1.343V284.5h1.275v8.5h-1.275v-1.326a4.26 4.26 0 01-1.122 1.037c-.442.283-1.008.425-1.7.425zm13.52 0c-.827 0-1.552-.193-2.176-.578a4.058 4.058 0 01-1.428-1.598 4.805 4.805 0 01-.51-2.21c0-.816.17-1.553.51-2.21a3.93 3.93 0 011.428-1.581c.624-.397 1.349-.595 2.176-.595.703 0 1.304.136 1.802.408.51.272.924.64 1.241 1.105V284.5h1.275v8.5h-1.275v-1.36a3.497 3.497 0 01-1.241 1.088c-.498.272-1.099.408-1.802.408zm.17-1.156c.635 0 1.168-.147 1.598-.442a2.802 2.802 0 001.003-1.173c.227-.499.34-1.037.34-1.615 0-.589-.113-1.128-.34-1.615a2.802 2.802 0 00-1.003-1.173c-.43-.295-.963-.442-1.598-.442-.623 0-1.161.147-1.615.442a2.889 2.889 0 00-1.037 1.173 3.63 3.63 0 00-.357 1.615c0 .578.119 1.116.357 1.615.238.487.584.878 1.037 1.173.454.295.992.442 1.615.442zm9.973 1.02v-8.5h1.275v1.292c.193-.34.499-.663.918-.969.419-.306.975-.459 1.666-.459.567 0 1.088.153 1.564.459a3 3 0 011.139 1.258 4.83 4.83 0 01.527-.697c.249-.272.572-.51.969-.714.397-.204.873-.306 1.428-.306.544 0 1.054.142 1.53.425.476.283.861.691 1.156 1.224.306.521.459 1.139.459 1.853V293h-1.275v-5.1c0-.714-.204-1.286-.612-1.717a1.925 1.925 0 00-1.496-.663 2.3 2.3 0 00-1.615.629c-.453.419-.68 1.009-.68 1.768V293h-1.275v-5.1c0-.714-.204-1.286-.612-1.717a1.925 1.925 0 00-1.496-.663 2.3 2.3 0 00-1.615.629c-.453.419-.68 1.009-.68 1.768V293h-1.275zm18.533.136c-.862 0-1.615-.193-2.261-.578a4.179 4.179 0 01-1.513-1.598 4.67 4.67 0 01-.527-2.21c0-.816.17-1.553.51-2.21a3.852 3.852 0 011.462-1.581c.634-.397 1.382-.595 2.244-.595.872 0 1.62.198 2.244.595a3.859 3.859 0 011.462 1.581c.34.657.51 1.394.51 2.21v.51h-7.123c.068.499.226.958.476 1.377.26.408.606.737 1.037.986.43.238.929.357 1.496.357.6 0 1.105-.13 1.513-.391.408-.272.725-.618.952-1.037h1.394a4.203 4.203 0 01-1.411 1.87c-.635.476-1.457.714-2.465.714zm-2.975-5.066h5.78c-.114-.725-.42-1.332-.918-1.819-.499-.487-1.156-.731-1.972-.731-.816 0-1.474.244-1.972.731-.488.487-.794 1.094-.918 1.819zm11.758 5.066c-.782 0-1.445-.13-1.989-.391-.533-.261-.941-.601-1.224-1.02a2.846 2.846 0 01-.476-1.394h1.326c.034.283.13.561.289.833.17.261.425.476.765.646.34.159.782.238 1.326.238a4.8 4.8 0 00.629-.051c.249-.034.487-.096.714-.187.238-.091.436-.227.595-.408.158-.181.238-.414.238-.697 0-.351-.136-.623-.408-.816-.272-.193-.624-.34-1.054-.442a28.36 28.36 0 00-1.377-.323 9.9 9.9 0 01-1.36-.391 2.805 2.805 0 01-1.054-.697c-.272-.306-.408-.72-.408-1.241 0-.771.277-1.366.833-1.785.566-.431 1.399-.646 2.499-.646.748 0 1.354.119 1.819.357.476.227.833.521 1.071.884.249.363.396.754.442 1.173h-1.292c-.046-.363-.227-.674-.544-.935-.306-.261-.816-.391-1.53-.391-1.349 0-2.023.408-2.023 1.224 0 .34.136.601.408.782.272.181.623.329 1.054.442.43.102.884.204 1.36.306.487.091.946.221 1.377.391.43.17.782.414 1.054.731.272.306.408.725.408 1.258 0 .827-.318 1.462-.952 1.904-.624.431-1.462.646-2.516.646zm8.201 0c-.782 0-1.445-.13-1.989-.391-.533-.261-.941-.601-1.224-1.02a2.846 2.846 0 01-.476-1.394h1.326c.034.283.13.561.289.833.17.261.425.476.765.646.34.159.782.238 1.326.238a4.8 4.8 0 00.629-.051c.249-.034.487-.096.714-.187.238-.091.436-.227.595-.408.158-.181.238-.414.238-.697 0-.351-.136-.623-.408-.816-.272-.193-.624-.34-1.054-.442a28.36 28.36 0 00-1.377-.323 9.9 9.9 0 01-1.36-.391 2.805 2.805 0 01-1.054-.697c-.272-.306-.408-.72-.408-1.241 0-.771.277-1.366.833-1.785.566-.431 1.399-.646 2.499-.646.748 0 1.354.119 1.819.357.476.227.833.521 1.071.884.249.363.396.754.442 1.173h-1.292c-.046-.363-.227-.674-.544-.935-.306-.261-.816-.391-1.53-.391-1.349 0-2.023.408-2.023 1.224 0 .34.136.601.408.782.272.181.623.329 1.054.442.43.102.884.204 1.36.306.487.091.946.221 1.377.391.43.17.782.414 1.054.731.272.306.408.725.408 1.258 0 .827-.318 1.462-.952 1.904-.624.431-1.462.646-2.516.646zm8.694 0c-.827 0-1.553-.193-2.176-.578a4.058 4.058 0 01-1.428-1.598 4.805 4.805 0 01-.51-2.21c0-.816.17-1.553.51-2.21a3.93 3.93 0 011.428-1.581c.623-.397 1.349-.595 2.176-.595.703 0 1.303.136 1.802.408.51.272.924.64 1.241 1.105V284.5h1.275v8.5h-1.275v-1.36a3.497 3.497 0 01-1.241 1.088c-.499.272-1.099.408-1.802.408zm.17-1.156c.635 0 1.167-.147 1.598-.442a2.81 2.81 0 001.003-1.173c.227-.499.34-1.037.34-1.615 0-.589-.113-1.128-.34-1.615a2.81 2.81 0 00-1.003-1.173c-.431-.295-.963-.442-1.598-.442-.623 0-1.162.147-1.615.442a2.889 2.889 0 00-1.037 1.173 3.63 3.63 0 00-.357 1.615c0 .578.119 1.116.357 1.615.238.487.584.878 1.037 1.173.453.295.992.442 1.615.442zm10.246 4.522c-1.065 0-1.932-.232-2.601-.697-.668-.453-1.122-1.048-1.36-1.785h1.411c.17.419.465.742.884.969.42.238.952.357 1.598.357.975 0 1.683-.232 2.125-.697.454-.453.68-1.116.68-1.989v-1.173a3.652 3.652 0 01-1.241 1.105c-.498.272-1.099.408-1.802.408-.827 0-1.552-.187-2.176-.561a3.963 3.963 0 01-1.428-1.564c-.34-.657-.51-1.388-.51-2.193 0-.816.17-1.547.51-2.193a3.844 3.844 0 011.428-1.547c.624-.385 1.349-.578 2.176-.578.703 0 1.304.136 1.802.408.51.261.924.623 1.241 1.088v-1.36h1.275v8.245c0 1.213-.351 2.142-1.054 2.788-.691.646-1.677.969-2.958.969zm-.136-4.658c.624 0 1.151-.142 1.581-.425a2.705 2.705 0 001.003-1.139c.238-.487.357-1.02.357-1.598 0-.589-.119-1.122-.357-1.598a2.705 2.705 0 00-1.003-1.139c-.43-.283-.957-.425-1.581-.425-.623 0-1.161.142-1.615.425a2.792 2.792 0 00-1.037 1.139 3.524 3.524 0 00-.357 1.598c0 .578.119 1.111.357 1.598.238.476.584.856 1.037 1.139.454.283.992.425 1.615.425zm10.128 1.292c-.862 0-1.615-.193-2.261-.578a4.179 4.179 0 01-1.513-1.598 4.67 4.67 0 01-.527-2.21c0-.816.17-1.553.51-2.21a3.852 3.852 0 011.462-1.581c.634-.397 1.382-.595 2.244-.595.872 0 1.62.198 2.244.595a3.859 3.859 0 011.462 1.581c.34.657.51 1.394.51 2.21v.51h-7.123c.068.499.226.958.476 1.377.26.408.606.737 1.037.986.43.238.929.357 1.496.357.6 0 1.105-.13 1.513-.391.408-.272.725-.618.952-1.037h1.394a4.203 4.203 0 01-1.411 1.87c-.635.476-1.457.714-2.465.714zm-2.975-5.066h5.78c-.114-.725-.42-1.332-.918-1.819-.499-.487-1.156-.731-1.972-.731-.816 0-1.474.244-1.972.731-.488.487-.794 1.094-.918 1.819z" fill="#5761DF"/>
          <path d="M105.64 313.104c-.555 0-1.023-.074-1.404-.221a2.79 2.79 0 01-.91-.585 3.024 3.024 0 01-.533-.741 3.193 3.193 0 01-.247-.715h1.001c.069.208.182.416.338.624.156.199.373.364.65.494.286.13.641.195 1.066.195.39 0 .728-.082 1.014-.247.295-.173.524-.403.689-.689.165-.295.247-.62.247-.975 0-.572-.182-1.031-.546-1.378-.355-.355-.815-.533-1.378-.533-.381 0-.724.074-1.027.221-.303.139-.529.295-.676.468l-.897-.546.585-4.082h4.485v.936h-3.601l-.39 2.496c.199-.121.438-.217.715-.286a2.97 2.97 0 01.806-.117c.581 0 1.088.121 1.521.364.433.243.771.576 1.014 1.001.243.416.364.901.364 1.456 0 .529-.13 1.01-.39 1.443-.251.433-.594.78-1.027 1.04a2.876 2.876 0 01-1.469.377zm7.12-.104v-9.1h.975v3.614c.234-.312.52-.576.858-.793.338-.217.771-.325 1.3-.325.451 0 .871.108 1.261.325.399.208.719.524.962.949.251.416.377.932.377 1.547V313h-.975v-3.757c0-.589-.169-1.062-.507-1.417-.338-.364-.776-.546-1.313-.546a1.917 1.917 0 00-1.703.949c-.173.295-.26.637-.26 1.027V313h-.975zm10.184.104c-.658 0-1.23-.147-1.716-.442a3.042 3.042 0 01-1.118-1.222 3.674 3.674 0 01-.39-1.69c0-.624.13-1.187.39-1.69.26-.511.633-.914 1.118-1.209.486-.303 1.058-.455 1.716-.455.668 0 1.24.152 1.716.455a2.95 2.95 0 011.118 1.209c.26.503.39 1.066.39 1.69 0 .615-.13 1.179-.39 1.69-.26.511-.632.919-1.118 1.222-.476.295-1.048.442-1.716.442zm0-.884c.486 0 .893-.113 1.222-.338.338-.225.594-.524.767-.897.174-.381.26-.793.26-1.235 0-.451-.086-.862-.26-1.235a2.137 2.137 0 00-.767-.897c-.329-.225-.736-.338-1.222-.338-.476 0-.884.113-1.222.338a2.144 2.144 0 00-.767.897c-.173.373-.26.784-.26 1.235 0 .442.087.854.26 1.235.174.373.429.672.767.897.338.225.746.338 1.222.338zm7.052.884a2.69 2.69 0 01-1.261-.312 2.57 2.57 0 01-.975-.949c-.242-.425-.364-.945-.364-1.56V306.5h.975v3.757c0 .589.169 1.066.507 1.43.347.355.785.533 1.313.533.364 0 .694-.082.988-.247.295-.173.529-.407.702-.702.182-.295.273-.637.273-1.027V306.5h.975v6.5h-.975v-1.014c-.234.312-.52.576-.858.793-.338.217-.771.325-1.3.325zm4.828-.104v-6.5h.975v1.599c.035-.113.1-.26.195-.442.104-.191.252-.381.442-.572.191-.191.429-.351.715-.481a2.419 2.419 0 011.04-.208h.065v.975h-.117c-.485 0-.905.134-1.261.403a2.58 2.58 0 00-.806 1.027 3.303 3.303 0 00-.273 1.339V313h-.975zm6.848.104c-.598 0-1.105-.1-1.521-.299-.407-.199-.719-.459-.936-.78a2.178 2.178 0 01-.364-1.066h1.014c.026.217.1.429.221.637.13.199.325.364.585.494.26.121.598.182 1.014.182.13 0 .29-.013.481-.039.191-.026.373-.074.546-.143.182-.069.334-.173.455-.312a.782.782 0 00.182-.533.72.72 0 00-.312-.624 2.315 2.315 0 00-.806-.338c-.329-.087-.68-.169-1.053-.247a7.662 7.662 0 01-1.04-.299 2.156 2.156 0 01-.806-.533c-.208-.234-.312-.55-.312-.949 0-.589.212-1.044.637-1.365.433-.329 1.07-.494 1.911-.494.572 0 1.036.091 1.391.273.364.173.637.399.819.676.191.277.303.576.338.897h-.988a1.081 1.081 0 00-.416-.715c-.234-.199-.624-.299-1.17-.299-1.031 0-1.547.312-1.547.936 0 .26.104.459.312.598.208.139.477.251.806.338.329.078.676.156 1.04.234a5.66 5.66 0 011.053.299c.329.13.598.316.806.559.208.234.312.555.312.962 0 .633-.243 1.118-.728 1.456-.477.329-1.118.494-1.924.494zm9.416 0c-.633 0-1.187-.147-1.664-.442a3.103 3.103 0 01-1.092-1.222 3.674 3.674 0 01-.39-1.69c0-.624.13-1.187.39-1.69.26-.511.624-.914 1.092-1.209.477-.303 1.031-.455 1.664-.455.537 0 .997.104 1.378.312.39.208.706.49.949.845V306.5h.975v6.5h-.975v-1.04a2.673 2.673 0 01-.949.832c-.381.208-.841.312-1.378.312zm.13-.884c.485 0 .893-.113 1.222-.338.338-.225.594-.524.767-.897.173-.381.26-.793.26-1.235 0-.451-.087-.862-.26-1.235a2.137 2.137 0 00-.767-.897c-.329-.225-.737-.338-1.222-.338-.477 0-.888.113-1.235.338a2.197 2.197 0 00-.793.897 2.776 2.776 0 00-.273 1.235c0 .442.091.854.273 1.235.182.373.446.672.793.897.347.225.758.338 1.235.338zm7.835 3.458c-.814 0-1.477-.178-1.989-.533a2.574 2.574 0 01-1.04-1.365h1.079c.13.321.356.568.676.741.321.182.728.273 1.222.273.746 0 1.287-.178 1.625-.533.347-.347.52-.854.52-1.521v-.897a2.789 2.789 0 01-.949.845c-.381.208-.84.312-1.378.312-.632 0-1.187-.143-1.664-.429a3.03 3.03 0 01-1.092-1.196 3.597 3.597 0 01-.39-1.677c0-.624.13-1.183.39-1.677.26-.503.624-.897 1.092-1.183.477-.295 1.032-.442 1.664-.442.538 0 .997.104 1.378.312.39.199.707.477.949.832v-1.04h.975v6.305c0 .927-.268 1.638-.806 2.132-.528.494-1.282.741-2.262.741zm-.104-3.562c.477 0 .88-.108 1.209-.325.338-.217.594-.507.767-.871.182-.373.273-.78.273-1.222 0-.451-.091-.858-.273-1.222a2.073 2.073 0 00-.767-.871c-.329-.217-.732-.325-1.209-.325-.476 0-.888.108-1.235.325a2.141 2.141 0 00-.793.871 2.693 2.693 0 00-.273 1.222c0 .442.091.849.273 1.222.182.364.447.654.793.871.347.217.759.325 1.235.325zm7.68.988c-.659 0-1.231-.147-1.716-.442a3.042 3.042 0 01-1.118-1.222 3.674 3.674 0 01-.39-1.69c0-.624.13-1.187.39-1.69.26-.511.633-.914 1.118-1.209.485-.303 1.057-.455 1.716-.455.667 0 1.239.152 1.716.455.485.295.858.698 1.118 1.209.26.503.39 1.066.39 1.69 0 .615-.13 1.179-.39 1.69-.26.511-.633.919-1.118 1.222-.477.295-1.049.442-1.716.442zm0-.884c.485 0 .893-.113 1.222-.338.338-.225.594-.524.767-.897.173-.381.26-.793.26-1.235 0-.451-.087-.862-.26-1.235a2.137 2.137 0 00-.767-.897c-.329-.225-.737-.338-1.222-.338-.477 0-.884.113-1.222.338a2.137 2.137 0 00-.767.897c-.173.373-.26.784-.26 1.235 0 .442.087.854.26 1.235.173.373.429.672.767.897.338.225.745.338 1.222.338z" fill="#000" fill-opacity=".5"/>
          <path d="M390 289l8 8-8 8" stroke="#000" stroke-opacity=".2" stroke-width="2"/>
        </g>
        <g filter="url(#fBaggl67mj)">
          <path d="M82 360c0-6.627 5.373-12 12-12h312c6.627 0 12 5.373 12 12v46c0 6.627-5.373 12-12 12H94c-6.627 0-12-5.373-12-12v-46z" fill="url(#fBaggl67mk)"/>
          <path d="M107.406 379.136c-1.111 0-2.012-.147-2.703-.442-.691-.306-1.213-.725-1.564-1.258a3.913 3.913 0 01-.595-1.802h1.326c.034.544.215.986.544 1.326.329.329.759.572 1.292.731a6.343 6.343 0 001.785.238c.952 0 1.706-.164 2.261-.493.555-.34.833-.839.833-1.496 0-.397-.142-.714-.425-.952-.272-.249-.64-.453-1.105-.612-.453-.159-.952-.3-1.496-.425-.544-.136-1.094-.278-1.649-.425a8.485 8.485 0 01-1.513-.561 3.282 3.282 0 01-1.105-.867c-.272-.363-.408-.822-.408-1.377 0-.918.351-1.666 1.054-2.244.714-.578 1.774-.867 3.179-.867.997 0 1.819.153 2.465.459.646.295 1.128.686 1.445 1.173.329.487.51 1.014.544 1.581h-1.309c-.068-.567-.351-1.043-.85-1.428-.499-.397-1.264-.595-2.295-.595-.635 0-1.15.062-1.547.187s-.703.289-.918.493a1.623 1.623 0 00-.425.612 2.03 2.03 0 00-.102.612c0 .374.136.68.408.918.283.227.652.419 1.105.578.465.147.975.283 1.53.408s1.105.266 1.649.425c.555.147 1.06.34 1.513.578.465.227.833.521 1.105.884.283.363.425.827.425 1.394 0 1.043-.397 1.847-1.19 2.414-.793.555-1.881.833-3.264.833zm9.745 0c-.827 0-1.553-.193-2.176-.578a4.058 4.058 0 01-1.428-1.598 4.805 4.805 0 01-.51-2.21c0-.816.17-1.553.51-2.21a3.93 3.93 0 011.428-1.581c.623-.397 1.349-.595 2.176-.595.703 0 1.303.136 1.802.408.51.272.924.64 1.241 1.105V370.5h1.275v8.5h-1.275v-1.36a3.497 3.497 0 01-1.241 1.088c-.499.272-1.099.408-1.802.408zm.17-1.156c.635 0 1.167-.147 1.598-.442a2.81 2.81 0 001.003-1.173c.227-.499.34-1.037.34-1.615 0-.589-.113-1.128-.34-1.615a2.81 2.81 0 00-1.003-1.173c-.431-.295-.963-.442-1.598-.442-.623 0-1.162.147-1.615.442a2.889 2.889 0 00-1.037 1.173 3.63 3.63 0 00-.357 1.615c0 .578.119 1.116.357 1.615.238.487.584.878 1.037 1.173.453.295.992.442 1.615.442zm6.353 1.02v-8.5h1.275v2.091c.046-.147.131-.34.255-.578.136-.249.329-.499.578-.748.25-.249.561-.459.935-.629.386-.181.839-.272 1.36-.272h.085v1.275h-.153c-.634 0-1.184.176-1.649.527-.453.34-.804.788-1.054 1.343a4.321 4.321 0 00-.357 1.751V379h-1.275zm9.232.136c-.827 0-1.553-.193-2.176-.578a4.058 4.058 0 01-1.428-1.598 4.805 4.805 0 01-.51-2.21c0-.816.17-1.553.51-2.21a3.93 3.93 0 011.428-1.581c.623-.397 1.349-.595 2.176-.595.703 0 1.303.136 1.802.408.51.272.924.64 1.241 1.105V370.5h1.275v8.5h-1.275v-1.36a3.497 3.497 0 01-1.241 1.088c-.499.272-1.099.408-1.802.408zm.17-1.156c.635 0 1.167-.147 1.598-.442a2.81 2.81 0 001.003-1.173c.227-.499.34-1.037.34-1.615 0-.589-.113-1.128-.34-1.615a2.81 2.81 0 00-1.003-1.173c-.431-.295-.963-.442-1.598-.442-.623 0-1.162.147-1.615.442a2.889 2.889 0 00-1.037 1.173 3.63 3.63 0 00-.357 1.615c0 .578.119 1.116.357 1.615.238.487.584.878 1.037 1.173.453.295.992.442 1.615.442zm6.353 1.02v-11.9h1.275v4.726a4.26 4.26 0 011.122-1.037c.442-.283 1.009-.425 1.7-.425.59 0 1.139.142 1.649.425.522.272.941.686 1.258 1.241.329.544.493 1.218.493 2.023V379h-1.275v-4.913c0-.771-.221-1.388-.663-1.853-.442-.476-1.014-.714-1.717-.714-.476 0-.906.108-1.292.323a2.501 2.501 0 00-.935.918c-.226.385-.34.833-.34 1.343V379h-1.275zm13.197-9.928v-1.666h1.377v1.666h-1.377zm.051 13.294V370.5h1.275v11.866h-1.275zm7.176-3.23c-.862 0-1.61-.193-2.244-.578a3.972 3.972 0 01-1.462-1.598 4.805 4.805 0 01-.51-2.21c0-.816.17-1.553.51-2.21a3.852 3.852 0 011.462-1.581c.634-.397 1.382-.595 2.244-.595.872 0 1.62.198 2.244.595a3.859 3.859 0 011.462 1.581c.34.657.51 1.394.51 2.21 0 .805-.17 1.541-.51 2.21a3.98 3.98 0 01-1.462 1.598c-.624.385-1.372.578-2.244.578zm0-1.156c.634 0 1.167-.147 1.598-.442a2.81 2.81 0 001.003-1.173c.226-.499.34-1.037.34-1.615 0-.589-.114-1.128-.34-1.615a2.81 2.81 0 00-1.003-1.173c-.431-.295-.964-.442-1.598-.442-.624 0-1.156.147-1.598.442a2.802 2.802 0 00-1.003 1.173 3.778 3.778 0 00-.34 1.615c0 .578.113 1.116.34 1.615.226.487.561.878 1.003 1.173.442.295.974.442 1.598.442zm5.855-8.908v-1.666h1.377v1.666h-1.377zm.051 9.928v-8.5h1.275v8.5h-1.275zm3.487 0v-8.5h1.275v1.326a4.26 4.26 0 011.122-1.037c.442-.283 1.008-.425 1.7-.425.589 0 1.139.142 1.649.425.521.272.94.686 1.258 1.241.328.544.493 1.218.493 2.023V379h-1.275v-4.913c0-.771-.221-1.388-.663-1.853-.442-.476-1.015-.714-1.717-.714-.476 0-.907.108-1.292.323a2.494 2.494 0 00-.935.918c-.227.385-.34.833-.34 1.343V379h-1.275zm13.403.136c-.862 0-1.615-.193-2.261-.578a4.179 4.179 0 01-1.513-1.598 4.67 4.67 0 01-.527-2.21c0-.816.17-1.553.51-2.21a3.852 3.852 0 011.462-1.581c.634-.397 1.382-.595 2.244-.595.872 0 1.62.198 2.244.595a3.859 3.859 0 011.462 1.581c.34.657.51 1.394.51 2.21v.51h-7.123c.068.499.226.958.476 1.377.26.408.606.737 1.037.986.43.238.929.357 1.496.357.6 0 1.105-.13 1.513-.391.408-.272.725-.618.952-1.037h1.394a4.203 4.203 0 01-1.411 1.87c-.635.476-1.457.714-2.465.714zm-2.975-5.066h5.78c-.114-.725-.42-1.332-.918-1.819-.499-.487-1.156-.731-1.972-.731-.816 0-1.474.244-1.972.731-.488.487-.794 1.094-.918 1.819zm12.25 5.066c-.827 0-1.552-.193-2.176-.578a4.058 4.058 0 01-1.428-1.598 4.805 4.805 0 01-.51-2.21c0-.816.17-1.553.51-2.21a3.93 3.93 0 011.428-1.581c.624-.397 1.349-.595 2.176-.595.703 0 1.304.136 1.802.408.51.272.924.64 1.241 1.105V367.1h1.275V379h-1.275v-1.36a3.497 3.497 0 01-1.241 1.088c-.498.272-1.099.408-1.802.408zm.17-1.156c.635 0 1.168-.147 1.598-.442a2.802 2.802 0 001.003-1.173c.227-.499.34-1.037.34-1.615 0-.589-.113-1.128-.34-1.615a2.802 2.802 0 00-1.003-1.173c-.43-.295-.963-.442-1.598-.442-.623 0-1.161.147-1.615.442a2.889 2.889 0 00-1.037 1.173 3.63 3.63 0 00-.357 1.615c0 .578.119 1.116.357 1.615.238.487.584.878 1.037 1.173.454.295.992.442 1.615.442zm10.857 4.386l1.547-3.485-3.468-8.381h1.411l2.737 6.97 2.788-6.97h1.394l-5.032 11.866h-1.377zm11.089-3.23c-.861 0-1.609-.193-2.244-.578a3.972 3.972 0 01-1.462-1.598 4.805 4.805 0 01-.51-2.21c0-.816.17-1.553.51-2.21a3.852 3.852 0 011.462-1.581c.635-.397 1.383-.595 2.244-.595.873 0 1.621.198 2.244.595a3.852 3.852 0 011.462 1.581c.34.657.51 1.394.51 2.21 0 .805-.17 1.541-.51 2.21a3.972 3.972 0 01-1.462 1.598c-.623.385-1.371.578-2.244.578zm0-1.156c.635 0 1.167-.147 1.598-.442a2.81 2.81 0 001.003-1.173c.227-.499.34-1.037.34-1.615 0-.589-.113-1.128-.34-1.615a2.81 2.81 0 00-1.003-1.173c-.431-.295-.963-.442-1.598-.442-.623 0-1.156.147-1.598.442a2.81 2.81 0 00-1.003 1.173 3.778 3.778 0 00-.34 1.615c0 .578.113 1.116.34 1.615a2.81 2.81 0 001.003 1.173c.442.295.975.442 1.598.442zm9.222 1.156a3.515 3.515 0 01-1.649-.408 3.333 3.333 0 01-1.275-1.241c-.318-.555-.476-1.235-.476-2.04V370.5h1.275v4.913c0 .771.221 1.394.663 1.87.453.465 1.025.697 1.717.697.476 0 .906-.108 1.292-.323.385-.227.691-.533.918-.918.238-.385.357-.833.357-1.343V370.5h1.275v8.5h-1.275v-1.326a4.26 4.26 0 01-1.122 1.037c-.442.283-1.009.425-1.7.425zm6.314-.136v-8.5h1.275v2.091c.045-.147.13-.34.255-.578.136-.249.328-.499.578-.748.249-.249.561-.459.935-.629.385-.181.838-.272 1.36-.272h.085v1.275h-.153c-.635 0-1.185.176-1.649.527-.454.34-.805.788-1.054 1.343a4.321 4.321 0 00-.357 1.751V379h-1.275zm13.372 3.502c-1.065 0-1.932-.232-2.601-.697-.668-.453-1.122-1.048-1.36-1.785h1.411c.17.419.465.742.884.969.42.238.952.357 1.598.357.975 0 1.683-.232 2.125-.697.454-.453.68-1.116.68-1.989v-1.173a3.652 3.652 0 01-1.241 1.105c-.498.272-1.099.408-1.802.408-.827 0-1.552-.187-2.176-.561a3.963 3.963 0 01-1.428-1.564c-.34-.657-.51-1.388-.51-2.193 0-.816.17-1.547.51-2.193a3.844 3.844 0 011.428-1.547c.624-.385 1.349-.578 2.176-.578.703 0 1.304.136 1.802.408.51.261.924.623 1.241 1.088v-1.36h1.275v8.245c0 1.213-.351 2.142-1.054 2.788-.691.646-1.677.969-2.958.969zm-.136-4.658c.624 0 1.151-.142 1.581-.425a2.705 2.705 0 001.003-1.139c.238-.487.357-1.02.357-1.598 0-.589-.119-1.122-.357-1.598a2.705 2.705 0 00-1.003-1.139c-.43-.283-.957-.425-1.581-.425-.623 0-1.161.142-1.615.425a2.792 2.792 0 00-1.037 1.139 3.524 3.524 0 00-.357 1.598c0 .578.119 1.111.357 1.598.238.476.584.856 1.037 1.139.454.283.992.425 1.615.425zm6.354 1.156v-8.5h1.275v2.091c.045-.147.13-.34.255-.578.136-.249.328-.499.578-.748.249-.249.561-.459.935-.629.385-.181.838-.272 1.36-.272h.085v1.275h-.153c-.635 0-1.185.176-1.649.527-.454.34-.805.788-1.054 1.343a4.321 4.321 0 00-.357 1.751V379h-1.275zm9.333.136c-.861 0-1.609-.193-2.244-.578a3.972 3.972 0 01-1.462-1.598 4.805 4.805 0 01-.51-2.21c0-.816.17-1.553.51-2.21a3.852 3.852 0 011.462-1.581c.635-.397 1.383-.595 2.244-.595.873 0 1.621.198 2.244.595a3.852 3.852 0 011.462 1.581c.34.657.51 1.394.51 2.21 0 .805-.17 1.541-.51 2.21a3.972 3.972 0 01-1.462 1.598c-.623.385-1.371.578-2.244.578zm0-1.156c.635 0 1.167-.147 1.598-.442a2.81 2.81 0 001.003-1.173c.227-.499.34-1.037.34-1.615 0-.589-.113-1.128-.34-1.615a2.81 2.81 0 00-1.003-1.173c-.431-.295-.963-.442-1.598-.442-.623 0-1.156.147-1.598.442a2.81 2.81 0 00-1.003 1.173 3.778 3.778 0 00-.34 1.615c0 .578.113 1.116.34 1.615a2.81 2.81 0 001.003 1.173c.442.295.975.442 1.598.442zm9.222 1.156a3.515 3.515 0 01-1.649-.408 3.333 3.333 0 01-1.275-1.241c-.318-.555-.476-1.235-.476-2.04V370.5h1.275v4.913c0 .771.221 1.394.663 1.87.453.465 1.025.697 1.717.697.476 0 .906-.108 1.292-.323.385-.227.691-.533.918-.918.238-.385.357-.833.357-1.343V370.5h1.275v8.5h-1.275v-1.326a4.26 4.26 0 01-1.122 1.037c-.442.283-1.009.425-1.7.425zm6.314 3.23V370.5h1.275v1.36a3.321 3.321 0 011.224-1.088c.51-.272 1.116-.408 1.819-.408.827 0 1.547.198 2.159.595a3.893 3.893 0 011.445 1.581c.34.657.51 1.394.51 2.21 0 .805-.17 1.541-.51 2.21a4.017 4.017 0 01-1.445 1.598c-.612.385-1.332.578-2.159.578-.703 0-1.309-.136-1.819-.408a3.699 3.699 0 01-1.224-1.105v4.743h-1.275zm4.148-4.386c.634 0 1.173-.147 1.615-.442a2.889 2.889 0 001.037-1.173 3.702 3.702 0 00.357-1.615 3.63 3.63 0 00-.357-1.615 2.889 2.889 0 00-1.037-1.173c-.442-.295-.981-.442-1.615-.442-.624 0-1.156.147-1.598.442a2.802 2.802 0 00-1.003 1.173 3.778 3.778 0 00-.34 1.615c0 .578.113 1.116.34 1.615.226.487.561.878 1.003 1.173.442.295.974.442 1.598.442z" fill="#5761DF"/>
          <path d="M105.653 399v-3.406l-3.614-5.2h1.183l2.912 4.186 2.912-4.186h1.183l-3.601 5.2V399h-.975zm7.276.104c-.658 0-1.235-.147-1.729-.442a3.204 3.204 0 01-1.157-1.222 3.585 3.585 0 01-.403-1.69c0-.624.13-1.187.39-1.69.26-.511.633-.914 1.118-1.209.486-.303 1.058-.455 1.716-.455.668 0 1.24.152 1.716.455a2.95 2.95 0 011.118 1.209c.26.503.39 1.066.39 1.69v.39h-5.447c.052.381.174.732.364 1.053.2.312.464.563.793.754.33.182.711.273 1.144.273.46 0 .845-.1 1.157-.299.312-.208.555-.472.728-.793h1.066a3.21 3.21 0 01-1.079 1.43c-.485.364-1.113.546-1.885.546zm-2.275-3.874h4.42a2.402 2.402 0 00-.702-1.391c-.381-.373-.884-.559-1.508-.559s-1.126.186-1.508.559a2.525 2.525 0 00-.702 1.391zm8.992 3.874c-.598 0-1.105-.1-1.521-.299-.408-.199-.72-.459-.936-.78a2.178 2.178 0 01-.364-1.066h1.014c.026.217.099.429.221.637.13.199.325.364.585.494.26.121.598.182 1.014.182.13 0 .29-.013.481-.039.19-.026.372-.074.546-.143.182-.069.333-.173.455-.312a.782.782 0 00.182-.533.72.72 0 00-.312-.624 2.315 2.315 0 00-.806-.338c-.33-.087-.681-.169-1.053-.247a7.662 7.662 0 01-1.04-.299 2.148 2.148 0 01-.806-.533c-.208-.234-.312-.55-.312-.949 0-.589.212-1.044.637-1.365.433-.329 1.07-.494 1.911-.494.572 0 1.035.091 1.391.273.364.173.637.399.819.676.19.277.303.576.338.897h-.988c-.035-.277-.174-.516-.416-.715-.234-.199-.624-.299-1.17-.299-1.032 0-1.547.312-1.547.936 0 .26.104.459.312.598.208.139.476.251.806.338.329.078.676.156 1.04.234.372.069.723.169 1.053.299.329.13.598.316.806.559.208.234.312.555.312.962 0 .633-.243 1.118-.728 1.456-.477.329-1.118.494-1.924.494zm4.607-.104v-5.642h-1.326v-.858h1.326v-2.327h.975v2.327h1.495v.858h-1.495V399h-.975zm6.297.104c-.658 0-1.235-.147-1.729-.442a3.204 3.204 0 01-1.157-1.222 3.585 3.585 0 01-.403-1.69c0-.624.13-1.187.39-1.69.26-.511.633-.914 1.118-1.209.486-.303 1.058-.455 1.716-.455.668 0 1.24.152 1.716.455a2.95 2.95 0 011.118 1.209c.26.503.39 1.066.39 1.69v.39h-5.447c.052.381.174.732.364 1.053.2.312.464.563.793.754.33.182.711.273 1.144.273.46 0 .845-.1 1.157-.299.312-.208.555-.472.728-.793h1.066a3.21 3.21 0 01-1.079 1.43c-.485.364-1.113.546-1.885.546zm-2.275-3.874h4.42a2.402 2.402 0 00-.702-1.391c-.381-.373-.884-.559-1.508-.559s-1.126.186-1.508.559a2.525 2.525 0 00-.702 1.391zm6.626 3.77v-6.5h.975v1.599a2.535 2.535 0 01.637-1.014c.19-.191.429-.351.715-.481.294-.139.641-.208 1.04-.208h.065v.975h-.117c-.486 0-.906.134-1.261.403-.347.26-.616.602-.806 1.027a3.303 3.303 0 00-.273 1.339V399h-.975zm7.059.104c-.633 0-1.187-.147-1.664-.442a3.103 3.103 0 01-1.092-1.222 3.674 3.674 0 01-.39-1.69c0-.624.13-1.187.39-1.69.26-.511.624-.914 1.092-1.209.477-.303 1.031-.455 1.664-.455.537 0 .997.104 1.378.312.39.208.706.49.949.845V389.9h.975v9.1h-.975v-1.04a2.673 2.673 0 01-.949.832c-.381.208-.841.312-1.378.312zm.13-.884c.485 0 .893-.113 1.222-.338.338-.225.594-.524.767-.897.173-.381.26-.793.26-1.235 0-.451-.087-.862-.26-1.235a2.137 2.137 0 00-.767-.897c-.329-.225-.737-.338-1.222-.338-.477 0-.888.113-1.235.338a2.197 2.197 0 00-.793.897 2.776 2.776 0 00-.273 1.235c0 .442.091.854.273 1.235.182.373.446.672.793.897.347.225.758.338 1.235.338zm7.602.884c-.633 0-1.188-.147-1.664-.442a3.103 3.103 0 01-1.092-1.222 3.674 3.674 0 01-.39-1.69c0-.624.13-1.187.39-1.69.26-.511.624-.914 1.092-1.209.476-.303 1.031-.455 1.664-.455.537 0 .996.104 1.378.312.39.208.706.49.949.845V392.5h.975v6.5h-.975v-1.04a2.673 2.673 0 01-.949.832c-.382.208-.841.312-1.378.312zm.13-.884c.485 0 .892-.113 1.222-.338.338-.225.593-.524.767-.897.173-.381.26-.793.26-1.235 0-.451-.087-.862-.26-1.235a2.144 2.144 0 00-.767-.897c-.33-.225-.737-.338-1.222-.338-.477 0-.889.113-1.235.338a2.197 2.197 0 00-.793.897 2.776 2.776 0 00-.273 1.235c0 .442.091.854.273 1.235.182.373.446.672.793.897.346.225.758.338 1.235.338zm5.534 3.354l1.183-2.665-2.652-6.409h1.079l2.093 5.33 2.132-5.33h1.066l-3.848 9.074h-1.053zm11.296-2.47c-.632 0-1.187-.147-1.664-.442a3.103 3.103 0 01-1.092-1.222 3.674 3.674 0 01-.39-1.69c0-.624.13-1.187.39-1.69.26-.511.624-.914 1.092-1.209.477-.303 1.032-.455 1.664-.455.538 0 .997.104 1.378.312.39.208.707.49.949.845V392.5h.975v6.5h-.975v-1.04a2.665 2.665 0 01-.949.832c-.381.208-.84.312-1.378.312zm.13-.884c.486 0 .893-.113 1.222-.338.338-.225.594-.524.767-.897.174-.381.26-.793.26-1.235 0-.451-.086-.862-.26-1.235a2.137 2.137 0 00-.767-.897c-.329-.225-.736-.338-1.222-.338-.476 0-.888.113-1.235.338a2.205 2.205 0 00-.793.897 2.776 2.776 0 00-.273 1.235c0 .442.091.854.273 1.235.182.373.447.672.793.897.347.225.759.338 1.235.338zm5.561.78v-5.642h-1.326v-.858h1.326v-2.327h.975v2.327h1.495v.858h-1.495V399h-.975zm9.036 0v-7.67h-1.82v-.936h2.795V399h-.975zm4.261-5.174V392.5h1.261v1.326h-1.261zm0 5.174v-1.326h1.261V399h-1.261zm2.628 0v-.533c0-.425.117-.81.351-1.157.234-.355.533-.685.897-.988a13.67 13.67 0 011.17-.871 42.17 42.17 0 001.17-.832c.364-.269.663-.546.897-.832.234-.295.351-.607.351-.936 0-.503-.169-.897-.507-1.183-.33-.286-.806-.429-1.43-.429-.572 0-1.04.13-1.404.39-.356.251-.568.62-.637 1.105h-.975c.052-.494.212-.923.481-1.287a2.711 2.711 0 011.066-.858 3.415 3.415 0 011.443-.299c.624 0 1.152.113 1.586.338.442.225.775.529 1.001.91.234.381.351.81.351 1.287 0 .399-.109.771-.325 1.118a4.413 4.413 0 01-.845.975c-.347.303-.715.589-1.105.858-.382.269-.75.533-1.105.793-.356.251-.65.503-.884.754-.234.243-.364.49-.39.741h4.628V399h-5.785zm7.147 0v-.533c0-.425.117-.81.351-1.157.234-.355.533-.685.897-.988a13.67 13.67 0 011.17-.871 42.17 42.17 0 001.17-.832c.364-.269.663-.546.897-.832.234-.295.351-.607.351-.936 0-.503-.169-.897-.507-1.183-.329-.286-.806-.429-1.43-.429-.572 0-1.04.13-1.404.39-.355.251-.567.62-.637 1.105h-.975c.052-.494.213-.923.481-1.287a2.725 2.725 0 011.066-.858 3.422 3.422 0 011.443-.299c.624 0 1.153.113 1.586.338.442.225.776.529 1.001.91.234.381.351.81.351 1.287 0 .399-.108.771-.325 1.118a4.361 4.361 0 01-.845.975c-.346.303-.715.589-1.105.858a84.87 84.87 0 00-1.105.793c-.355.251-.65.503-.884.754-.234.243-.364.49-.39.741h4.628V399h-5.785zm10.084 2.574V392.5h.975v1.04c.243-.355.555-.633.936-.832.39-.208.854-.312 1.391-.312.633 0 1.183.152 1.651.455a2.98 2.98 0 011.105 1.209c.26.503.39 1.066.39 1.69 0 .615-.13 1.179-.39 1.69-.26.511-.628.919-1.105 1.222-.468.295-1.018.442-1.651.442-.537 0-1.001-.104-1.391-.312a2.84 2.84 0 01-.936-.845v3.627h-.975zm3.172-3.354c.486 0 .897-.113 1.235-.338.347-.225.611-.524.793-.897a2.83 2.83 0 00.273-1.235c0-.451-.091-.862-.273-1.235a2.197 2.197 0 00-.793-.897c-.338-.225-.749-.338-1.235-.338-.476 0-.884.113-1.222.338a2.144 2.144 0 00-.767.897c-.173.373-.26.784-.26 1.235 0 .442.087.854.26 1.235.174.373.429.672.767.897.338.225.746.338 1.222.338zm4.56.78v-6.5h.975v.988c.147-.26.381-.507.702-.741.32-.234.745-.351 1.274-.351.433 0 .832.117 1.196.351.372.225.663.546.871.962.086-.147.221-.325.403-.533.19-.208.437-.39.741-.546.303-.156.667-.234 1.092-.234.416 0 .806.108 1.17.325.364.217.658.529.884.936.234.399.351.871.351 1.417V399h-.975v-3.9c0-.546-.156-.984-.468-1.313a1.473 1.473 0 00-1.144-.507c-.477 0-.889.16-1.235.481-.347.321-.52.771-.52 1.352V399h-.975v-3.9c0-.546-.156-.984-.468-1.313a1.473 1.473 0 00-1.144-.507c-.477 0-.889.16-1.235.481-.347.321-.52.771-.52 1.352V399h-.975z" fill="#000" fill-opacity=".5"/>
          <path d="M390 375l8 8-8 8" stroke="#000" stroke-opacity=".2" stroke-width="2"/>
        </g>
        <g filter="url(#fBaggl67ml)">
          <path d="M82 446c0-6.627 5.373-12 12-12h312c6.627 0 12 5.373 12 12v46c0 6.627-5.373 12-12 12H94c-6.627 0-12-5.373-12-12v-46z" fill="url(#fBaggl67mm)"/>
        </g>
        <path d="M90.592 129v-21.184h2.784l13.088 17.824v-17.824h2.4V129h-2.784l-13.088-17.888V129h-2.4zm29.901.256c-1.622 0-3.03-.363-4.224-1.088a7.48 7.48 0 01-2.752-3.008c-.64-1.259-.96-2.645-.96-4.16 0-1.536.32-2.923.96-4.16a7.257 7.257 0 012.752-2.976c1.194-.747 2.602-1.12 4.224-1.12 1.642 0 3.05.373 4.224 1.12a7.263 7.263 0 012.752 2.976c.64 1.237.96 2.624.96 4.16 0 1.515-.32 2.901-.96 4.16a7.486 7.486 0 01-2.752 3.008c-1.174.725-2.582 1.088-4.224 1.088zm0-2.176c1.194 0 2.197-.277 3.008-.832a5.282 5.282 0 001.888-2.208 7.27 7.27 0 00.64-3.04c0-1.109-.214-2.123-.64-3.04a5.282 5.282 0 00-1.888-2.208c-.811-.555-1.814-.832-3.008-.832-1.174 0-2.176.277-3.008.832a5.275 5.275 0 00-1.888 2.208c-.427.917-.64 1.931-.64 3.04 0 1.088.213 2.101.64 3.04a5.275 5.275 0 001.888 2.208c.832.555 1.834.832 3.008.832zm12.846 1.92v-13.888h-3.264V113h3.264v-5.728h2.4V113h3.68v2.112h-3.68V129h-2.4zm8.614-18.688v-3.136h2.592v3.136h-2.592zm.096 18.688v-16h2.4v16h-2.4zm7.65 0v-13.888h-2.752V113h2.752v-1.408c0-1.749.523-3.061 1.568-3.936 1.067-.875 2.518-1.312 4.352-1.312h.192v2.272h-.32c-1.109 0-1.952.256-2.528.768-.576.491-.864 1.291-.864 2.4V113h8.224l-.064.064V129h-2.4v-13.888h-5.76V129h-2.4zm8.064-18.688v-3.136h2.592v3.136h-2.592zm13.603 18.944c-1.6 0-2.986-.363-4.16-1.088a7.802 7.802 0 01-2.752-3.008c-.64-1.259-.96-2.645-.96-4.16 0-1.536.32-2.923.96-4.16.662-1.259 1.579-2.251 2.752-2.976 1.174-.747 2.56-1.12 4.16-1.12 1.899 0 3.51.491 4.832 1.472 1.344.981 2.251 2.251 2.72 3.808h-2.592a4.904 4.904 0 00-1.76-2.24c-.789-.576-1.749-.864-2.88-.864-1.173 0-2.197.277-3.072.832a5.595 5.595 0 00-2.016 2.208c-.469.917-.704 1.931-.704 3.04 0 1.088.235 2.101.704 3.04a5.595 5.595 0 002.016 2.208c.875.555 1.899.832 3.072.832 1.131 0 2.091-.288 2.88-.864a4.904 4.904 0 001.76-2.24h2.592c-.469 1.557-1.376 2.827-2.72 3.808-1.322.981-2.933 1.472-4.832 1.472zm17.279 0c-1.558 0-2.923-.363-4.096-1.088a7.639 7.639 0 01-2.688-3.008c-.64-1.259-.96-2.645-.96-4.16 0-1.536.32-2.923.96-4.16.64-1.259 1.536-2.251 2.688-2.976 1.173-.747 2.538-1.12 4.096-1.12 1.322 0 2.453.256 3.392.768a6.467 6.467 0 012.336 2.08V113h2.4v16h-2.4v-2.56a6.59 6.59 0 01-2.336 2.048c-.939.512-2.07.768-3.392.768zm.32-2.176c1.194 0 2.197-.277 3.008-.832a5.282 5.282 0 001.888-2.208 7.27 7.27 0 00.64-3.04c0-1.109-.214-2.123-.64-3.04a5.282 5.282 0 00-1.888-2.208c-.811-.555-1.814-.832-3.008-.832-1.174 0-2.187.277-3.04.832a5.425 5.425 0 00-1.952 2.208c-.448.917-.672 1.931-.672 3.04 0 1.088.224 2.101.672 3.04a5.425 5.425 0 001.952 2.208c.853.555 1.866.832 3.04.832zm13.687 1.92v-13.888h-3.264V113h3.264v-5.728h2.4V113h3.68v2.112h-3.68V129h-2.4zm8.613-18.688v-3.136h2.592v3.136h-2.592zm.096 18.688v-16h2.4v16h-2.4zm13.507.256c-1.622 0-3.03-.363-4.224-1.088a7.48 7.48 0 01-2.752-3.008c-.64-1.259-.96-2.645-.96-4.16 0-1.536.32-2.923.96-4.16a7.257 7.257 0 012.752-2.976c1.194-.747 2.602-1.12 4.224-1.12 1.642 0 3.05.373 4.224 1.12a7.263 7.263 0 012.752 2.976c.64 1.237.96 2.624.96 4.16 0 1.515-.32 2.901-.96 4.16a7.486 7.486 0 01-2.752 3.008c-1.174.725-2.582 1.088-4.224 1.088zm0-2.176c1.194 0 2.197-.277 3.008-.832a5.282 5.282 0 001.888-2.208 7.27 7.27 0 00.64-3.04c0-1.109-.214-2.123-.64-3.04a5.282 5.282 0 00-1.888-2.208c-.811-.555-1.814-.832-3.008-.832-1.174 0-2.176.277-3.008.832a5.275 5.275 0 00-1.888 2.208c-.427.917-.64 1.931-.64 3.04 0 1.088.213 2.101.64 3.04a5.275 5.275 0 001.888 2.208c.832.555 1.834.832 3.008.832zm11.118 1.92v-16h2.4v2.496a8.025 8.025 0 012.112-1.952c.832-.533 1.899-.8 3.2-.8a6.29 6.29 0 013.104.8c.982.512 1.771 1.291 2.368 2.336.619 1.024.928 2.293.928 3.808V129h-2.4v-9.248c0-1.451-.416-2.613-1.248-3.488-.832-.896-1.909-1.344-3.232-1.344-.896 0-1.706.203-2.432.608a4.71 4.71 0 00-1.76 1.728c-.426.725-.64 1.568-.64 2.528V129h-2.4zm23.949.256c-1.472 0-2.72-.245-3.744-.736-1.002-.491-1.77-1.131-2.304-1.92a5.372 5.372 0 01-.896-2.624h2.496c.064.533.246 1.056.544 1.568.32.491.8.896 1.44 1.216.64.299 1.472.448 2.496.448.32 0 .715-.032 1.184-.096.47-.064.918-.181 1.344-.352a2.773 2.773 0 001.12-.768c.299-.341.448-.779.448-1.312 0-.661-.256-1.173-.768-1.536s-1.173-.64-1.984-.832a52.344 52.344 0 00-2.592-.608 18.743 18.743 0 01-2.56-.736c-.81-.32-1.472-.757-1.984-1.312-.512-.576-.768-1.355-.768-2.336 0-1.451.523-2.571 1.568-3.36 1.067-.811 2.635-1.216 4.704-1.216 1.408 0 2.55.224 3.424.672.896.427 1.568.981 2.016 1.664.47.683.747 1.419.832 2.208h-2.432c-.085-.683-.426-1.269-1.024-1.76-.576-.491-1.536-.736-2.88-.736-2.538 0-3.808.768-3.808 2.304 0 .64.256 1.131.768 1.472.512.341 1.174.619 1.984.832.811.192 1.664.384 2.56.576a14.03 14.03 0 012.592.736c.811.32 1.472.779 1.984 1.376.512.576.768 1.365.768 2.368 0 1.557-.597 2.752-1.792 3.584-1.173.811-2.752 1.216-4.736 1.216z" fill="#fff"/>
      </g>
      <g filter="url(#fBaggl67mn)">
        <path fill="#C4C4C4" d="M40 440h420v70H40z"/>
      </g>
    </g>
  </g>
  <defs>
    <filter id="fBaggl67ma" x="0" y="0" width="500" height="686" filterUnits="userSpaceOnUse" color-interpolation-filters="sRGB">
      <feFlood flood-opacity="0" result="BackgroundImageFix"/>
      <feColorMatrix in="SourceAlpha" type="matrix" values="0 0 0 0 0 0 0 0 0 0 0 0 0 0 0 0 0 0 127 0"/>
      <feOffset dy="12"/>
      <feGaussianBlur stdDeviation="20"/>
      <feColorMatrix type="matrix" values="0 0 0 0 0 0 0 0 0 0 0 0 0 0 0 0 0 0 0.15 0"/>
      <feBlend mode="normal" in2="BackgroundImageFix" result="effect1_dropShadow"/>
      <feBlend mode="normal" in="SourceGraphic" in2="effect1_dropShadow" result="shape"/>
      <feColorMatrix in="SourceAlpha" type="matrix" values="0 0 0 0 0 0 0 0 0 0 0 0 0 0 0 0 0 0 127 0" result="hardAlpha"/>
      <feOffset/>
      <feGaussianBlur stdDeviation="6"/>
      <feComposite in2="hardAlpha" operator="arithmetic" k2="-1" k3="1"/>
      <feColorMatrix type="matrix" values="0 0 0 0 0.443137 0 0 0 0 0.47451 0 0 0 0 0.898039 0 0 0 0.3 0"/>
      <feBlend mode="normal" in2="shape" result="effect2_innerShadow"/>
    </filter>
    <filter id="fBaggl67md" x="49" y="37" width="402" height="580" filterUnits="userSpaceOnUse" color-interpolation-filters="sRGB">
      <feFlood flood-opacity="0" result="BackgroundImageFix"/>
      <feColorMatrix in="SourceAlpha" type="matrix" values="0 0 0 0 0 0 0 0 0 0 0 0 0 0 0 0 0 0 127 0"/>
      <feOffset/>
      <feGaussianBlur stdDeviation="7.5"/>
      <feColorMatrix type="matrix" values="0 0 0 0 0.470588 0 0 0 0 0.388235 0 0 0 0 0.968627 0 0 0 0.25 0"/>
      <feBlend mode="normal" in2="BackgroundImageFix" result="effect1_dropShadow"/>
      <feBlend mode="normal" in="SourceGraphic" in2="effect1_dropShadow" result="shape"/>
    </filter>
    <filter id="fBaggl67mf" x="74" y="148" width="360" height="114" filterUnits="userSpaceOnUse" color-interpolation-filters="sRGB">
      <feFlood flood-opacity="0" result="BackgroundImageFix"/>
      <feColorMatrix in="SourceAlpha" type="matrix" values="0 0 0 0 0 0 0 0 0 0 0 0 0 0 0 0 0 0 127 0"/>
      <feOffset dx="4" dy="4"/>
      <feGaussianBlur stdDeviation="6"/>
      <feColorMatrix type="matrix" values="0 0 0 0 0 0 0 0 0 0 0 0 0 0 0 0 0 0 0.1 0"/>
      <feBlend mode="normal" in2="BackgroundImageFix" result="effect1_dropShadow"/>
      <feColorMatrix in="SourceAlpha" type="matrix" values="0 0 0 0 0 0 0 0 0 0 0 0 0 0 0 0 0 0 127 0"/>
      <feOffset dy="3"/>
      <feColorMatrix type="matrix" values="0 0 0 0 0.715278 0 0 0 0 0.724507 0 0 0 0 0.858333 0 0 0 1 0"/>
      <feBlend mode="normal" in2="effect1_dropShadow" result="effect2_dropShadow"/>
      <feBlend mode="normal" in="SourceGraphic" in2="effect2_dropShadow" result="shape"/>
      <feColorMatrix in="SourceAlpha" type="matrix" values="0 0 0 0 0 0 0 0 0 0 0 0 0 0 0 0 0 0 127 0" result="hardAlpha"/>
      <feOffset dy="-2"/>
      <feGaussianBlur stdDeviation="1.5"/>
      <feComposite in2="hardAlpha" operator="arithmetic" k2="-1" k3="1"/>
      <feColorMatrix type="matrix" values="0 0 0 0 0.713726 0 0 0 0 0.72549 0 0 0 0 0.858824 0 0 0 1 0"/>
      <feBlend mode="normal" in2="shape" result="effect3_innerShadow"/>
    </filter>
    <filter id="fBaggl67mh" x="74" y="254" width="360" height="94" filterUnits="userSpaceOnUse" color-interpolation-filters="sRGB">
      <feFlood flood-opacity="0" result="BackgroundImageFix"/>
      <feColorMatrix in="SourceAlpha" type="matrix" values="0 0 0 0 0 0 0 0 0 0 0 0 0 0 0 0 0 0 127 0"/>
      <feOffset dx="4" dy="4"/>
      <feGaussianBlur stdDeviation="6"/>
      <feColorMatrix type="matrix" values="0 0 0 0 0 0 0 0 0 0 0 0 0 0 0 0 0 0 0.1 0"/>
      <feBlend mode="normal" in2="BackgroundImageFix" result="effect1_dropShadow"/>
      <feColorMatrix in="SourceAlpha" type="matrix" values="0 0 0 0 0 0 0 0 0 0 0 0 0 0 0 0 0 0 127 0"/>
      <feOffset dy="3"/>
      <feColorMatrix type="matrix" values="0 0 0 0 0.715278 0 0 0 0 0.724507 0 0 0 0 0.858333 0 0 0 1 0"/>
      <feBlend mode="normal" in2="effect1_dropShadow" result="effect2_dropShadow"/>
      <feBlend mode="normal" in="SourceGraphic" in2="effect2_dropShadow" result="shape"/>
      <feColorMatrix in="SourceAlpha" type="matrix" values="0 0 0 0 0 0 0 0 0 0 0 0 0 0 0 0 0 0 127 0" result="hardAlpha"/>
      <feOffset dy="-2"/>
      <feGaussianBlur stdDeviation="1.5"/>
      <feComposite in2="hardAlpha" operator="arithmetic" k2="-1" k3="1"/>
      <feColorMatrix type="matrix" values="0 0 0 0 0.713726 0 0 0 0 0.72549 0 0 0 0 0.858824 0 0 0 1 0"/>
      <feBlend mode="normal" in2="shape" result="effect3_innerShadow"/>
    </filter>
    <filter id="fBaggl67mj" x="74" y="340" width="360" height="94" filterUnits="userSpaceOnUse" color-interpolation-filters="sRGB">
      <feFlood flood-opacity="0" result="BackgroundImageFix"/>
      <feColorMatrix in="SourceAlpha" type="matrix" values="0 0 0 0 0 0 0 0 0 0 0 0 0 0 0 0 0 0 127 0"/>
      <feOffset dx="4" dy="4"/>
      <feGaussianBlur stdDeviation="6"/>
      <feColorMatrix type="matrix" values="0 0 0 0 0 0 0 0 0 0 0 0 0 0 0 0 0 0 0.1 0"/>
      <feBlend mode="normal" in2="BackgroundImageFix" result="effect1_dropShadow"/>
      <feColorMatrix in="SourceAlpha" type="matrix" values="0 0 0 0 0 0 0 0 0 0 0 0 0 0 0 0 0 0 127 0"/>
      <feOffset dy="3"/>
      <feColorMatrix type="matrix" values="0 0 0 0 0.715278 0 0 0 0 0.724507 0 0 0 0 0.858333 0 0 0 1 0"/>
      <feBlend mode="normal" in2="effect1_dropShadow" result="effect2_dropShadow"/>
      <feBlend mode="normal" in="SourceGraphic" in2="effect2_dropShadow" result="shape"/>
      <feColorMatrix in="SourceAlpha" type="matrix" values="0 0 0 0 0 0 0 0 0 0 0 0 0 0 0 0 0 0 127 0" result="hardAlpha"/>
      <feOffset dy="-2"/>
      <feGaussianBlur stdDeviation="1.5"/>
      <feComposite in2="hardAlpha" operator="arithmetic" k2="-1" k3="1"/>
      <feColorMatrix type="matrix" values="0 0 0 0 0.713726 0 0 0 0 0.72549 0 0 0 0 0.858824 0 0 0 1 0"/>
      <feBlend mode="normal" in2="shape" result="effect3_innerShadow"/>
    </filter>
    <filter id="fBaggl67ml" x="74" y="426" width="360" height="94" filterUnits="userSpaceOnUse" color-interpolation-filters="sRGB">
      <feFlood flood-opacity="0" result="BackgroundImageFix"/>
      <feColorMatrix in="SourceAlpha" type="matrix" values="0 0 0 0 0 0 0 0 0 0 0 0 0 0 0 0 0 0 127 0"/>
      <feOffset dx="4" dy="4"/>
      <feGaussianBlur stdDeviation="6"/>
      <feColorMatrix type="matrix" values="0 0 0 0 0 0 0 0 0 0 0 0 0 0 0 0 0 0 0.1 0"/>
      <feBlend mode="normal" in2="BackgroundImageFix" result="effect1_dropShadow"/>
      <feColorMatrix in="SourceAlpha" type="matrix" values="0 0 0 0 0 0 0 0 0 0 0 0 0 0 0 0 0 0 127 0"/>
      <feOffset dy="3"/>
      <feColorMatrix type="matrix" values="0 0 0 0 0.715278 0 0 0 0 0.724507 0 0 0 0 0.858333 0 0 0 1 0"/>
      <feBlend mode="normal" in2="effect1_dropShadow" result="effect2_dropShadow"/>
      <feBlend mode="normal" in="SourceGraphic" in2="effect2_dropShadow" result="shape"/>
      <feColorMatrix in="SourceAlpha" type="matrix" values="0 0 0 0 0 0 0 0 0 0 0 0 0 0 0 0 0 0 127 0" result="hardAlpha"/>
      <feOffset dy="-2"/>
      <feGaussianBlur stdDeviation="1.5"/>
      <feComposite in2="hardAlpha" operator="arithmetic" k2="-1" k3="1"/>
      <feColorMatrix type="matrix" values="0 0 0 0 0.713726 0 0 0 0 0.72549 0 0 0 0 0.858824 0 0 0 1 0"/>
      <feBlend mode="normal" in2="shape" result="effect3_innerShadow"/>
    </filter>
    <filter id="fBaggl67mn" x="20" y="420" width="460" height="110" filterUnits="userSpaceOnUse" color-interpolation-filters="sRGB">
      <feFlood flood-opacity="0" result="BackgroundImageFix"/>
      <feColorMatrix in="SourceAlpha" type="matrix" values="0 0 0 0 0 0 0 0 0 0 0 0 0 0 0 0 0 0 127 0"/>
      <feOffset/>
      <feGaussianBlur stdDeviation="10"/>
      <feColorMatrix type="matrix" values="0 0 0 0 0 0 0 0 0 0 0 0 0 0 0 0 0 0 0.15 0"/>
      <feBlend mode="normal" in2="BackgroundImageFix" result="effect1_dropShadow"/>
      <feBlend mode="normal" in="SourceGraphic" in2="effect1_dropShadow" result="shape"/>
    </filter>
    <linearGradient id="fBaggl67me" x1="250" y1="52" x2="250" y2="570" gradientUnits="userSpaceOnUse">
      <stop stop-color="#3B3E68"/>
      <stop offset="1" stop-color="#1B1B1D"/>
    </linearGradient>
    <linearGradient id="fBaggl67mg" x1="250" y1="156" x2="250" y2="246" gradientUnits="userSpaceOnUse">
      <stop stop-color="#fff"/>
      <stop offset="1" stop-color="#E7E8FF"/>
    </linearGradient>
    <linearGradient id="fBaggl67mi" x1="250" y1="262" x2="250" y2="332" gradientUnits="userSpaceOnUse">
      <stop stop-color="#fff"/>
      <stop offset="1" stop-color="#E7E8FF"/>
    </linearGradient>
    <linearGradient id="fBaggl67mk" x1="250" y1="348" x2="250" y2="418" gradientUnits="userSpaceOnUse">
      <stop stop-color="#fff"/>
      <stop offset="1" stop-color="#E7E8FF"/>
    </linearGradient>
    <linearGradient id="fBaggl67mm" x1="250" y1="434" x2="250" y2="504" gradientUnits="userSpaceOnUse">
      <stop stop-color="#fff"/>
      <stop offset="1" stop-color="#E7E8FF"/>
    </linearGradient>
    <clipPath id="fBaggl67mb">
      <path fill="#fff" d="M0 0h500v440H0z"/>
    </clipPath>
    <clipPath id="fBaggl67mc">
      <rect x="40" y="28" width="420" height="606" rx="66" fill="#fff"/>
    </clipPath>
  </defs>
</svg>
